<?xml version="1.0" encoding="UTF-8" standalone="no"?>
<!-- Created with Inkscape (http://www.inkscape.org/) -->

<svg
   width="145"
   height="60"
   viewBox="0 0 145 60"
   version="1.1"
   id="svg1"
   inkscape:version="1.4.3 (0d15f75042, 2025-12-25)"
   sodipodi:docname="eagles-default.svg"
   xmlns:inkscape="http://www.inkscape.org/namespaces/inkscape"
   xmlns:sodipodi="http://sodipodi.sourceforge.net/DTD/sodipodi-0.dtd"
   xmlns="http://www.w3.org/2000/svg"
   xmlns:svg="http://www.w3.org/2000/svg">
  <sodipodi:namedview
     id="namedview1"
     pagecolor="#ffffff"
     bordercolor="#000000"
     borderopacity="0.25"
     inkscape:showpageshadow="2"
     inkscape:pageopacity="0.0"
     inkscape:pagecheckerboard="0"
     inkscape:deskcolor="#d1d1d1"
     inkscape:document-units="px"
     inkscape:zoom="3.0274646"
     inkscape:cx="201.32358"
     inkscape:cy="37.324962"
     inkscape:window-width="2560"
     inkscape:window-height="1363"
     inkscape:window-x="0"
     inkscape:window-y="0"
     inkscape:window-maximized="1"
     inkscape:current-layer="layer1">
    <inkscape:page
       x="0"
       y="0"
       width="145"
       height="60"
       id="page1"
       margin="0"
       bleed="0" />
  </sodipodi:namedview>
  <defs
     id="defs1" />
  <g
     inkscape:label="Layer 1"
     inkscape:groupmode="layer"
     id="layer1">
    <g
       id="g1">
      <path
         id="path1"
         d="m 14.308674,14.210022 c 0,0 -0.803685,1.089872 -1.102818,2.859379 1.417793,-1.879966 2.513062,-3.001821 2.851736,-3.47565 0.338676,-0.473524 0.472613,-0.829068 0.535593,-2.156271 0.06328,-1.327282 0.149739,-2.3775734 -0.566891,-2.693537 -0.717314,-0.3158809 -2.269014,0.5450913 -3.285438,1.295299 -1.016423,0.750208 -3.42722,3.357291 -4.1992713,5.640203 -0.7720513,2.28261 -1.3234658,4.620603 -1.2288226,6.540149 0.094332,1.919168 0.3858678,2.898581 1.6070972,2.408876 1.2209047,-0.489708 2.6469307,-1.46114 2.6469307,-1.46114 -1.275981,0.916049 -2.5915436,2.662078 -3.6158752,4.992172 -1.0243362,2.33009 -0.9455148,3.246449 -1.0873263,5.710781 -0.1418114,2.464633 -0.015805,4.707663 -0.015805,5.134314 0,0.426728 0.2522849,0.86105 1.126572,-0.01581 0.8746119,-0.876852 4.0416345,-3.894096 5.1447915,-5.789941 1.102838,-1.895768 1.118349,-2.369598 1.118349,-2.369598 0.929665,-1.737824 1.276626,-4.818121 1.166162,-5.560736 -1.260495,3.127781 -3.923571,5.844946 -5.325868,7.424827 -1.4019664,1.579581 -3.1040218,2.717543 -2.4579551,0 0.6460616,-2.71716 2.1746531,-5.971585 3.9390681,-7.630249 1.44787,-1.360864 2.163574,-1.785992 2.591859,-2.479222 0.223498,-0.361775 0.254191,-0.663755 0.338365,-1.067689 0.194027,-0.927755 0.546075,-2.332907 -0.290566,-2.116692 -1.040163,0.268708 -3.821317,1.856188 -4.6721848,2.282912 -0.8505526,0.42665 -1.1974851,0.473829 -0.7720513,-1.106053 0.4254338,-1.579503 2.2059961,-5.4186 5.5543701,-6.366331"
         style="fill:#b4975a;fill-opacity:1;fill-rule:evenodd;stroke:none;stroke-width:0.0759703" />
      <path
         id="path2"
         d="m 11.579421,22.939415 c 0.05192,0 0.103196,0.02429 0.135164,0.07027 0.0516,0.07369 0.03419,0.17534 -0.03894,0.227911 -1.296565,0.93125 -2.5950201,2.726053 -3.5614332,4.924789 -0.8875877,2.019527 -0.9350711,2.954875 -1.0293986,4.818432 -0.012994,0.25921 -0.026913,0.536199 -0.044316,0.835677 -0.1130049,1.966952 -0.055079,3.787128 -0.0272,4.662007 0.00698,0.218412 0.011735,0.377038 0.011735,0.462813 0,0.05477 0.00761,0.328265 0.1557416,0.328265 0.069323,0 0.2753898,-0.045 0.6897486,-0.460307 0.1025612,-0.102861 0.2370894,-0.235508 0.3959925,-0.392156 1.2205993,-1.204133 3.7602231,-3.709869 4.7228391,-5.364508 1.041428,-1.789711 1.094925,-2.277214 1.096506,-2.297118 0.0024,-0.02187 0.0089,-0.04747 0.01929,-0.06746 0.725844,-1.35668 1.07812,-3.511051 1.151277,-4.71017 -1.189582,2.498821 -3.165445,4.682973 -4.512025,6.171388 -0.190876,0.211124 -0.369092,0.408037 -0.53053,0.589986 -0.4523355,0.509307 -1.5817684,1.694147 -2.3041199,1.694147 h -3.398e-4 c -0.1728333,0 -0.3168606,-0.06678 -0.4172105,-0.193727 -0.2127143,-0.269392 -0.2193617,-0.808402 -0.019927,-1.647575 0.5846618,-2.458935 2.081591,-5.921294 3.9865522,-7.712295 0.540659,-0.508018 0.983185,-0.889163 1.338666,-1.195551 0.604915,-0.521385 0.970205,-0.83636 1.225976,-1.250094 0.172514,-0.279801 0.219959,-0.522603 0.280127,-0.829901 l 0.07536,-0.365038 c 0.12406,-0.583988 0.312089,-1.466538 0.115856,-1.708956 -0.0304,-0.0371 -0.102861,-0.06997 -0.242495,-0.03457 -0.766975,0.198207 -2.54405,1.152547 -3.720332,1.784393 -0.386178,0.207322 -0.7103221,0.38145 -0.9189251,0.486212 -0.3358484,0.168349 -0.5827513,0.272505 -0.7774281,0.272505 -0.1677716,0 -0.2630448,-0.07817 -0.3130642,-0.143659 -0.1589032,-0.2074 -0.1348485,-0.606549 0.085464,-1.424751 0.395367,-1.468511 2.1844714,-5.49586 5.6686694,-6.481882 0.06708,-0.01838 0.139561,0.0066 0.179826,0.06458 0.04019,0.05758 0.03889,0.134848 -0.0024,0.191143 -0.0066,0.0092 -0.572603,0.790398 -0.91795,2.078172 0.708727,-0.906022 1.319683,-1.610952 1.748918,-2.106281 0.308288,-0.355844 0.531107,-0.612857 0.651444,-0.781283 0.309582,-0.433032 0.442225,-0.74132 0.505205,-2.068601 l 0.0088,-0.182022 c 0.05698,-1.171545 0.102255,-2.0970926 -0.47793,-2.3528834 -0.08008,-0.035106 -0.179827,-0.053182 -0.296593,-0.053182 -0.754688,0 -1.993297,0.7167074 -2.824546,1.3304714 -1.051558,0.77581 -3.4003095,3.369598 -4.1410233,5.560053 -0.8917036,2.636176 -1.3022616,4.816231 -1.2202745,6.479376 0.084199,1.710933 0.3339528,2.377572 0.8910637,2.377572 0.1380198,0 0.3029356,-0.03796 0.4900095,-0.113349 1.1908386,-0.47732 2.6016816,-1.43455 2.6159226,-1.444349 0.02817,-0.0194 0.06046,-0.02851 0.09243,-0.02851 M 7.1809263,39.598738 c -0.2947019,0 -0.4849426,-0.257997 -0.4849426,-0.657446 0,-0.08387 -0.00483,-0.239005 -0.011734,-0.45233 -0.027879,-0.879664 -0.0861,-2.709639 0.027879,-4.691482 0.017116,-0.298872 0.031029,-0.574872 0.044316,-0.833475 0.095913,-1.903744 0.1443423,-2.859379 1.0566247,-4.933978 0.6894336,-1.568487 1.5197231,-2.907168 2.4139626,-3.908687 -0.3925157,0.216216 -0.8223811,0.432048 -1.2329391,0.596673 -0.2298112,0.09216 -0.4301856,0.136749 -0.612833,0.136749 -1.0037588,0 -1.1531628,-1.328877 -1.2199543,-2.690647 -0.084203,-1.704553 0.3320515,-3.925399 1.2373662,-6.600851 0.7733213,-2.286712 3.1461292,-4.899493 4.2571992,-5.7196681 0.913228,-0.6742375 2.186392,-1.3946694 3.020168,-1.3946694 0.162957,0 0.307304,0.0272 0.429236,0.081061 0.787509,0.3468844 0.737523,1.3721808 0.674237,2.6703655 l -0.0089,0.181643 c -0.06328,1.331083 -0.196918,1.727725 -0.566285,2.24432 -0.129147,0.180737 -0.356451,0.442836 -0.670437,0.805595 -0.514398,0.593554 -1.291803,1.490617 -2.183851,2.67325 -0.04592,0.06077 -0.12693,0.08227 -0.196573,0.05189 -0.06995,-0.02977 -0.109839,-0.103851 -0.09718,-0.178531 0.199745,-1.180733 0.615054,-2.059714 0.884111,-2.533921 -3.057498,1.138573 -4.6490801,4.754768 -5.0140548,6.111525 -0.2298112,0.852391 -0.1877092,1.079084 -0.1424462,1.138573 0.00385,0.0048 0.011395,0.01488 0.051922,0.01488 0.1373747,0 0.3953572,-0.120263 0.6296046,-0.237715 0.2070172,-0.103545 0.5283048,-0.276378 0.9110064,-0.482106 1.189888,-0.639064 2.988491,-1.604881 3.793781,-1.812888 0.251019,-0.06488 0.45234,-0.01198 0.580884,0.146243 0.294993,0.36466 0.111677,1.225405 -0.05007,1.984733 l -0.07407,0.359641 c -0.06389,0.326675 -0.119347,0.608983 -0.323178,0.939527 -0.282663,0.457344 -0.683717,0.803011 -1.291173,1.326598 -0.35326,0.304186 -0.792625,0.68313 -1.327897,1.186052 -1.590321,1.495101 -3.1907615,4.599104 -3.8919043,7.548354 -0.2256947,0.950243 -0.1231341,1.264606 -0.042085,1.367473 0.025309,0.032 0.066476,0.06868 0.159228,0.06868 0.3963075,0 1.2038129,-0.621667 2.0575316,-1.583377 0.1623897,-0.182939 0.3412357,-0.380768 0.5330627,-0.59257 1.457048,-1.61088 3.659242,-4.044747 4.763374,-6.784474 0.02783,-0.06898 0.09876,-0.111371 0.17215,-0.101877 0.07377,0.0085 0.132642,0.06579 0.143431,0.139256 0.115171,0.774593 -0.227304,3.849503 -1.169639,5.635418 -0.02599,0.162728 -0.183598,0.765704 -1.135441,2.401957 -0.98477,1.692247 -3.5459272,4.21887 -4.7766459,5.433108 -0.1579574,0.155741 -0.2915358,0.287778 -0.3937859,0.390338 -0.3741535,0.37476 -0.6758186,0.556787 -0.9230417,0.556787"
         style="fill:#b4975a;fill-opacity:1;fill-rule:nonzero;stroke:none;stroke-width:0.0759703" />
      <path
         id="path3"
         d="m 22.485382,19.706566 c 0,0 0.496012,0.995215 0.248198,2.081591 -0.248198,1.086076 -1.004409,2.436757 -1.122771,3.218947 -0.118058,0.78189 0,1.863863 0.323178,1.705842 0.226621,-0.110764 1.338982,-1.192054 1.981843,-1.8258 -0.02371,0.484313 -0.01329,0.955029 0.02439,1.395048 -0.417536,0.85558 -1.228823,2.427869 -2.100889,3.629796 -1.260505,1.737825 -2.253136,1.43774 -2.032518,-0.82147 0.220618,-2.259133 0.425434,-3.096405 0.425434,-3.096405 -0.787887,2.274707 -1.898652,4.581324 -2.450047,5.331837 -0.551773,0.750513 -1.229128,-0.323785 -1.662465,-1.761225 -0.433411,-1.43774 -0.220313,-3.997035 0.961332,-6.398308 1.181644,-2.40128 2.198057,-3.823218 2.709944,-4.462966 0.51212,-0.639371 1.757123,-1.729927 2.379091,-1.745729 0.622657,-0.01552 1.245313,2.038215 0.315281,2.748842 m -1.016104,0.813872 c 0,0 -1.20535,1.500721 -2.363599,3.096104 -1.157939,1.595684 -1.489021,2.662156 -1.59918,3.586113 -0.110459,0.924332 0.02342,1.287396 0.220318,1.058574 0.197217,-0.228899 2.237633,-3.136067 3.742461,-7.740791"
         style="fill:#b4975a;fill-opacity:1;fill-rule:evenodd;stroke:none;stroke-width:0.0759703" />
      <path
         id="path4"
         d="m 21.015581,21.39182 c -0.458405,0.587479 -1.120264,1.449441 -1.762214,2.333891 -1.213326,1.671654 -1.47413,2.711769 -1.568792,3.508849 -0.05538,0.460612 -0.04209,0.725518 -0.01867,0.859455 0.348552,-0.479599 1.971437,-2.85049 3.349693,-6.702195 m -3.380691,7.113044 c -0.06867,0 -0.133932,-0.0304 -0.183011,-0.08577 -0.140851,-0.158931 -0.172451,-0.570465 -0.09458,-1.223508 0.09998,-0.83909 0.371879,-1.930562 1.629571,-3.663296 1.147456,-1.580493 2.356297,-3.087594 2.36838,-3.10279 0.04969,-0.06176 0.136366,-0.07946 0.206639,-0.04146 0.06997,0.03768 0.102939,0.120336 0.07825,0.195928 -1.466232,4.486739 -3.466839,7.440397 -3.774215,7.797158 -0.07058,0.08197 -0.148144,0.123755 -0.231029,0.123755 m 4.556944,-11.369977 c -0.530806,0.01329 -1.73494,1.030694 -2.25792,1.684038 -0.494112,0.616959 -1.500421,2.013524 -2.690575,4.432579 -1.21173,2.462053 -1.342778,4.980171 -0.951527,6.277973 0.391551,1.298794 0.852768,1.890453 1.115779,1.890453 0.08296,0 0.169032,-0.06047 0.256397,-0.179214 0.544179,-0.740714 1.64917,-3.04224 2.427258,-5.28816 0.02851,-0.08296 0.117451,-0.128846 0.201931,-0.10385 0.08425,0.02468 0.134237,0.111448 0.11365,0.196917 -0.0024,0.0086 -0.205423,0.85816 -0.421633,3.07331 -0.07848,0.804378 0.002,1.404163 0.220996,1.645752 0.06898,0.07597 0.149361,0.112661 0.245613,0.112661 0.152547,0 0.581782,-0.102256 1.269009,-1.049686 0.85338,-1.176553 1.65335,-2.72164 2.066095,-3.564532 -0.0257,-0.315658 -0.0367,-0.636941 -0.0336,-0.959131 -1.474736,1.44306 -1.666868,1.537111 -1.732734,1.569094 -0.04369,0.02153 -0.08866,0.03229 -0.133936,0.03229 -0.06108,0 -0.150956,-0.01998 -0.232624,-0.115245 -0.26878,-0.311784 -0.273188,-1.255719 -0.19152,-1.795413 0.06237,-0.413128 0.288384,-0.962316 0.527689,-1.544098 0.234524,-0.570465 0.47702,-1.160451 0.597283,-1.686927 0.231101,-1.012913 -0.230418,-1.961939 -0.23513,-1.971433 -0.03486,-0.07058 -0.01518,-0.156348 0.04747,-0.204132 0.485224,-0.370663 0.484613,-1.19365 0.279192,-1.801416 -0.145032,-0.428018 -0.354861,-0.651827 -0.487198,-0.651827 m -4.784244,14.614219 c -0.713517,0 -1.238627,-1.48583 -1.431059,-2.124667 -0.422927,-1.402869 -0.286484,-3.962469 0.971131,-6.518267 1.204133,-2.446862 2.22685,-3.865304 2.729243,-4.493276 0.497302,-0.621061 1.795409,-1.789487 2.503529,-1.80719 h 2.86e-4 c 0.326064,0 0.624553,0.32728 0.810075,0.875562 0.235809,0.696726 0.228217,1.58748 -0.29059,2.082503 0.12695,0.305175 0.418752,1.151941 0.208239,2.073387 -0.126266,0.55299 -0.374158,1.155742 -0.613769,1.738814 -0.231406,0.562789 -0.450123,1.094279 -0.506795,1.468132 -0.09998,0.664739 -0.0069,1.383876 0.106357,1.522904 0.09496,-0.05987 0.46851,-0.352959 1.920152,-1.784702 0.04877,-0.04776 0.120947,-0.06108 0.183016,-0.03326 0.06199,0.02788 0.100355,0.09055 0.09716,0.158321 -0.0225,0.461218 -0.01425,0.923347 0.02409,1.37317 0.0029,0.02972 -0.0029,0.05948 -0.0162,0.08638 -0.411154,0.842663 -1.23323,2.438046 -2.115479,3.65418 -0.562483,0.775586 -1.09329,1.185445 -1.53521,1.185445 -0.189013,0 -0.358351,-0.07627 -0.489403,-0.220618 -0.289596,-0.319381 -0.395047,-0.975916 -0.305098,-1.898958 0.05728,-0.586873 0.113272,-1.077488 0.165236,-1.483023 -0.69133,1.714124 -1.461825,3.244626 -1.893261,3.831805 -0.152624,0.207929 -0.328265,0.313374 -0.521687,0.313374"
         style="fill:#b4975a;fill-opacity:1;fill-rule:nonzero;stroke:none;stroke-width:0.0759703" />
      <path
         id="path5"
         d="m 29.672194,15.671696 c 0.409632,-0.07916 0.496313,0.70303 0.394058,1.445339 -0.102561,0.742614 -0.80369,1.651066 -1.764721,2.575402 -0.961327,0.923953 -2.520927,3.388284 -2.788723,5.110307 -0.267796,1.72195 0.56727,1.279725 1.607079,-0.679329 1.039886,-1.958748 2.048392,-3.902072 2.536806,-5.30783 0.488414,-1.406064 1.780522,-1.263923 1.51242,0.536882 -0.267796,1.800805 -1.102861,4.865911 -1.591276,6.445492 0.517284,-0.70911 1.33807,-1.794196 1.823978,-2.432955 -0.01998,0.422243 -0.02468,0.824582 -0.01207,1.200942 0.0039,0.11555 0.0089,0.22662 0.01425,0.336474 l -2.64537,4.039122 c 0,0 -1.607383,4.818432 -2.50543,6.761679 -0.898051,1.943251 -2.615287,3.554436 -2.22153,1.216444 0.393756,-2.338298 1.04809,-5.068754 3.560813,-8.452025 0.819496,-3.159385 1.260504,-4.849731 1.260504,-4.849731 -1.307683,3.333208 -2.662767,5.4502 -3.687152,5.529361 -1.024007,0.07886 -1.906178,-3.933371 -0.677355,-7.15612 1.229128,-3.222743 3.151486,-5.861426 5.183698,-6.319454"
         style="fill:#b4975a;fill-opacity:1;fill-rule:evenodd;stroke:none;stroke-width:0.0759703" />
      <path
         id="path6"
         d="m 29.666419,18.349503 c -0.299778,0.427336 -0.712223,0.894556 -1.236421,1.398166 -0.917722,0.882244 -2.478233,3.332902 -2.740332,5.017241 -0.119352,0.768521 0.01901,0.881564 0.02022,0.882171 0.113344,0 0.554279,-0.299095 1.278886,-1.664056 1.011317,-1.905267 2.039504,-3.882702 2.526628,-5.284663 0.04398,-0.126034 0.09436,-0.242496 0.151029,-0.348859 m -0.798981,5.040646 c 0.01678,0 0.03389,0.0024 0.05097,0.0079 0.08258,0.02691 0.130063,0.113959 0.108258,0.198134 0,3.82e-4 -0.441314,1.690341 -1.260505,4.849803 -0.0054,0.02027 -0.01459,0.03957 -0.0272,0.05668 -2.528907,3.404693 -3.148368,6.111525 -3.530726,8.381141 -0.119352,0.708048 -0.01363,0.898657 0.02148,0.940439 0.01648,0.01901 0.03258,0.02628 0.05948,0.02628 0.358658,0 1.23551,-0.995894 1.828992,-2.279798 0.883839,-1.912559 2.482335,-6.696115 2.498515,-6.744282 0.0044,-0.01357 0.01076,-0.02628 0.01837,-0.03831 L 31.25129,24.79369 c -0.0044,-0.09307 -0.0085,-0.187724 -0.01168,-0.285499 -0.0076,-0.219706 -0.0092,-0.452402 -0.0048,-0.69513 -0.463041,0.610879 -1.084097,1.435461 -1.509531,2.018916 -0.04747,0.06458 -0.134543,0.08638 -0.207023,0.04999 -0.07187,-0.03608 -0.107346,-0.119047 -0.08326,-0.195929 0.469727,-1.520096 1.315887,-4.607308 1.585579,-6.421103 0.07878,-0.529895 0.0193,-0.955329 -0.163335,-1.167442 -0.07346,-0.08478 -0.161134,-0.128162 -0.260882,-0.128162 -0.238321,0 -0.568792,0.258908 -0.769811,0.836893 -0.494796,1.42414 -1.529513,3.41457 -2.546911,5.331231 -0.36466,0.686927 -1.052799,1.839169 -1.565602,1.839169 -0.102561,0 -0.192204,-0.0418 -0.259893,-0.120642 -0.152246,-0.177848 -0.181722,-0.551395 -0.08995,-1.142064 0.276379,-1.7771 1.865075,-4.268933 2.837496,-5.203675 1.05098,-1.010106 1.628049,-1.844487 1.715719,-2.478844 0.07756,-0.561572 0.03351,-1.066171 -0.106357,-1.226922 -0.02851,-0.03258 -0.05007,-0.0367 -0.06906,-0.0367 -1.837806,0.411455 -3.779157,2.793819 -5.085545,6.2191 -0.971814,2.549116 -0.588768,5.633215 0.102561,6.636329 0.09337,0.135454 0.237104,0.297271 0.39125,0.297271 0.932841,-0.07126 2.258527,-2.099366 3.563625,-5.425888 0.02531,-0.06458 0.08737,-0.104461 0.153536,-0.104461 m -4.578211,14.789559 c -0.12406,0 -0.231712,-0.04938 -0.310795,-0.142747 -0.167441,-0.198207 -0.198512,-0.593253 -0.09497,-1.207929 0.387754,-2.301603 1.015802,-5.045737 3.572212,-8.496696 0.280408,-1.081974 0.516222,-1.99043 0.705236,-2.716554 -0.835982,1.764415 -1.932158,3.552531 -2.967943,3.632302 -0.0044,2.87e-4 -0.03831,0.002 -0.04267,0.002 -0.238699,0 -0.461523,-0.148143 -0.662542,-0.439946 -0.748613,-1.086754 -1.163637,-4.253131 -0.138646,-6.940588 1.365267,-3.580416 3.347109,-5.981083 5.30115,-6.421713 0.03515,-0.0066 0.06396,-0.0095 0.09177,-0.0095 0.122237,0 0.231707,0.05189 0.317176,0.149734 0.312467,0.358657 0.220011,1.230117 0.184228,1.48872 -0.04049,0.293398 -0.168349,0.619161 -0.383269,0.975917 0.21203,-0.263388 0.469421,-0.412521 0.736228,-0.412521 0.194406,0 0.375443,0.08615 0.510292,0.2425 0.248804,0.28869 0.333967,0.79678 0.239916,1.430754 -0.226315,1.520702 -0.851479,3.921064 -1.327887,5.567728 0.454226,-0.608755 0.952822,-1.266813 1.266201,-1.678951 0.04369,-0.05766 0.119347,-0.08007 0.187341,-0.05508 0.06777,0.02439 0.111754,0.09018 0.108259,0.162346 -0.02022,0.425133 -0.024,0.82466 -0.01168,1.187725 0.0034,0.114867 0.0086,0.225025 0.01396,0.333967 0.002,0.03481 -0.0076,0.06928 -0.02657,0.09838 L 28.9222,28.950909 c -0.115245,0.344072 -1.643162,4.893108 -2.505124,6.758183 -0.549193,1.18803 -1.518802,2.47064 -2.12748,2.47064 z"
         style="fill:#b4975a;fill-opacity:1;fill-rule:nonzero;stroke:none;stroke-width:0.0759703" />
      <path
         id="path7"
         d="m 36.018466,11.182979 c -0.590669,0.750513 -2.426347,6.169108 -2.237027,7.717313 0.898351,-3.191372 2.000835,-5.197677 2.237027,-7.717313 m 1.032211,-4.3284227 c 0.228216,-0.024099 0.535593,0.3867702 0.425434,2.6380767 -0.110459,2.251234 -2.449742,9.533998 -4.057131,12.298642 -0.394057,1.863858 -0.01581,3.246522 0.590675,3.191062 0.428624,-0.03889 1.5147,-1.616878 2.114863,-2.538629 -0.02216,0.257008 -0.03738,0.519107 -0.04248,0.785308 -0.0088,0.431814 0.002,0.828762 0.02759,1.193421 -0.621367,1.269621 -1.396264,2.78432 -1.776799,3.26134 -0.693235,0.868872 -2.727648,2.369593 -2.915066,-3.175265 -0.187342,-5.544939 3.340499,-16.6347344 5.632909,-17.6539557"
         style="fill:#b4975a;fill-opacity:1;fill-rule:evenodd;stroke:none;stroke-width:0.0759703" />
      <path
         id="path8"
         d="m 35.735174,12.12942 c -0.530807,1.245614 -1.278509,3.51394 -1.614682,5.162805 0.18932,-0.571377 0.377955,-1.104079 0.554285,-1.601081 0.445033,-1.255412 0.842285,-2.374988 1.060397,-3.561724 m -1.940745,6.948109 c -0.0044,0 -0.0085,0 -0.01261,-3.01e-4 -0.07817,-0.006 -0.141535,-0.06647 -0.150723,-0.144342 -0.196539,-1.606172 1.675528,-7.082962 2.27091,-7.838867 0.04529,-0.05728 0.12345,-0.07818 0.190231,-0.05128 0.06807,0.0272 0.109853,0.09557 0.103244,0.168349 -0.150044,1.599562 -0.641343,2.985339 -1.210213,4.590216 -0.343388,0.968624 -0.698549,1.97022 -1.032516,3.156272 -0.01998,0.07156 -0.08516,0.119958 -0.158322,0.119958 M 37.091935,7.0359012 c -2.202233,1.0888878 -5.678187,12.1112958 -5.49685,17.4795228 0.08456,2.500421 0.571377,3.877387 1.370965,3.877387 0.453013,0 0.956924,-0.430525 1.25101,-0.798986 0.295977,-0.370963 0.896756,-1.47413 1.738126,-3.191367 -0.02468,-0.369063 -0.03287,-0.760313 -0.02497,-1.163942 0.0014,-0.05918 0.0029,-0.118668 0.0051,-0.178836 -1.387144,2.053105 -1.766694,2.087593 -1.898047,2.099294 -0.143358,0.01237 -0.336474,-0.01391 -0.529895,-0.252906 -0.426651,-0.526099 -0.521992,-1.786598 -0.23642,-3.13599 0.0034,-0.01741 0.0098,-0.0336 0.01867,-0.04877 1.619695,-2.785915 3.92988,-10.083487 4.034948,-12.2239563 0.09337,-1.905572 -0.119958,-2.3461968 -0.216211,-2.4468618 -0.0063,-0.00698 -0.01203,-0.011683 -0.01644,-0.014592 M 32.96603,28.721981 c -1.033806,0 -1.605789,-1.411456 -1.700145,-4.195164 -0.18962,-5.620833 3.398389,-16.7730027 5.730685,-17.8099993 0.01586,-0.00727 0.03268,-0.011686 0.05007,-0.013577 0.0054,-2.861e-4 0.02938,-0.00145 0.03481,-0.00145 0.06838,0 0.169643,0.020898 0.26529,0.1215484 0.280785,0.2946924 0.380766,1.1746576 0.306692,2.6903464 -0.108564,2.2167445 -2.39307,9.4554435 -4.066019,12.3499175 -0.297805,1.431742 -0.118663,2.47254 0.175719,2.835299 0.07157,0.08828 0.146854,0.133249 0.224419,0.133249 0.06207,-0.0048 0.476409,-0.106663 2.01193,-2.465544 0.04146,-0.06329 0.120636,-0.08988 0.19152,-0.06587 0.07156,0.02468 0.117146,0.09497 0.11046,0.170027 -0.02279,0.263694 -0.037,0.524193 -0.04209,0.774592 -0.0082,0.409865 9.78e-4,0.806506 0.02759,1.178454 0.002,0.0288 -0.0039,0.05797 -0.01648,0.08387 -0.874272,1.786293 -1.478543,2.893868 -1.796097,3.291421 -0.172455,0.216822 -0.791611,0.923042 -1.508319,0.923042"
         style="fill:#b4975a;fill-opacity:1;fill-rule:nonzero;stroke:none;stroke-width:0.0759703" />
      <path
         id="path9"
         d="m 38.172153,22.835186 c -0.06298,1.35858 0.472918,2.132493 1.733423,1.311402 1.064193,-0.693536 1.960037,-2.277825 2.213248,-2.753628 l -0.0069,0.01329 c -0.152624,0.557169 -0.176024,1.232619 -0.08577,1.91476 -0.503,1.048391 -1.545693,3.070804 -2.514622,3.985034 -1.33936,1.263924 -3.482336,0.695132 -3.387679,-4.075517 0.09466,-4.770948 3.056523,-8.167815 4.616807,-8.783785 1.559903,-0.616349 3.3876,2.764721 -2.568488,8.388438 m 2.33199,-5.971286 c 0.141841,0.0076 -0.323179,2.337615 -2.190155,4.11502 0.08676,-0.979335 1.087371,-3.467372 2.190155,-4.11502"
         style="fill:#b4975a;fill-opacity:1;fill-rule:evenodd;stroke:none;stroke-width:0.0759703" />
      <path
         id="path10"
         d="m 40.269319,17.204855 c -0.773909,0.674543 -1.499126,2.262023 -1.759325,3.285729 1.157261,-1.273722 1.639367,-2.690269 1.759325,-3.285729 m -2.018611,3.951457 c -0.02429,0 -0.0487,-0.0054 -0.07179,-0.0162 -0.06146,-0.03006 -0.09846,-0.09466 -0.09246,-0.163034 0.09306,-1.050597 1.116157,-3.564537 2.270911,-4.242649 0.02778,-0.01638 0.0604,-0.02429 0.09238,-0.0224 0.06556,0.0034 0.138951,0.06268 0.16174,0.12406 0.120341,0.327281 -0.480511,2.592494 -2.247433,4.274936 -0.03132,0.02972 -0.07217,0.04529 -0.113349,0.04529 m 2.794496,-6.60442 c -0.10256,0 -0.206104,0.02027 -0.307676,0.06047 -1.570388,0.620455 -4.421484,4.035937 -4.512345,8.634051 -0.04939,2.481424 0.503605,3.577299 0.976523,4.05941 0.277901,0.283598 0.597967,0.427635 0.950921,0.427635 0.397254,0 0.81699,-0.189926 1.182256,-0.534676 0.927526,-0.874573 1.929955,-2.795036 2.45795,-3.892506 -0.04558,-0.366556 -0.05888,-0.721416 -0.03991,-1.055684 -0.428551,0.677428 -1.08478,1.566892 -1.820708,2.046419 -0.689128,0.448906 -1.2507,0.476408 -1.606472,0.104156 -0.282992,-0.296589 -0.415028,-0.836589 -0.381446,-1.560895 0.002,-0.04267 0.02027,-0.08288 0.05128,-0.112359 3.691562,-3.485144 4.44207,-6.147611 3.913775,-7.476715 -0.174128,-0.437817 -0.497307,-0.699306 -0.864168,-0.699306 m -2.892577,13.510747 c -0.438424,0 -0.848666,-0.182022 -1.186125,-0.5264 -0.516905,-0.527082 -1.12216,-1.700445 -1.070501,-4.296435 0.09838,-4.973257 3.17367,-8.322573 4.72058,-8.93383 0.140545,-0.05538 0.284587,-0.08326 0.428623,-0.08326 0.506801,0 0.94424,0.338675 1.169949,0.906861 0.56598,1.423534 -0.175723,4.215147 -3.944464,7.791761 -0.01901,0.590369 0.08486,1.033806 0.293398,1.252606 0.246597,0.257919 0.651443,0.197141 1.188025,-0.152629 1.029404,-0.670742 1.911948,-2.230646 2.158171,-2.693153 0.04209,-0.08007 0.142141,-0.11046 0.221908,-0.06807 0.08038,0.04248 0.111148,0.14153 0.06936,0.221908 -0.136138,0.497607 -0.16493,1.154447 -0.07566,1.82998 0.0039,0.032 -9.77e-4,0.06389 -0.01488,0.09276 -0.532403,1.110387 -1.571299,3.110616 -2.5501,4.033658 -0.426351,0.40264 -0.926844,0.624247 -1.40827,0.624247"
         style="fill:#b4975a;fill-opacity:1;fill-rule:nonzero;stroke:none;stroke-width:0.0759703" />
      <path
         id="path11"
         d="m 45.575025,16.930377 c 0,0 -1.576085,3.175261 -2.190155,4.139177 0.457038,0.284204 0.976523,0.750208 1.220541,1.927066 0.630555,-0.860972 1.410544,-1.674466 0.969614,-6.066243 m -0.05576,-2.101194 c 0,0 0.181111,-2.124668 1.174124,-2.267109 0.992325,-0.142068 0.669452,1.161435 0.701129,1.79328 0.03128,0.631772 0.291196,1.516222 0.456737,2.725063 0.165536,1.208618 -0.432731,5.221072 -2.607006,6.548354 0.897974,-0.189621 1.867282,-1.595684 3.489861,-3.017623 l -0.0079,1.45362 c 0,0 -2.190151,4.817744 -4.143886,4.786445 -1.953735,-0.03137 -3.008434,-3.442071 -2.473142,-5.393905 1.701129,-3.342096 3.410089,-6.628125 3.410089,-6.628125"
         style="fill:#b4975a;fill-opacity:1;fill-rule:evenodd;stroke:none;stroke-width:0.0759703" />
      <path
         id="path12"
         d="m 43.547449,20.957271 c 0.388665,0.269392 0.817591,0.705309 1.072096,1.596062 0.529285,-0.732204 1.058191,-1.713135 0.78219,-5.09481 -0.447239,0.889463 -1.359569,2.681758 -1.854286,3.498748 m 0.996121,2.141454 c -0.01168,0 -0.02337,-0.0014 -0.03481,-0.0039 -0.06366,-0.01363 -0.113345,-0.06366 -0.12634,-0.127251 -0.232618,-1.12087 -0.709944,-1.549494 -1.146466,-1.820787 -0.03738,-0.02342 -0.06397,-0.06047 -0.07346,-0.103471 -0.0098,-0.04276 -0.002,-0.08805 0.02187,-0.125045 0.602369,-0.945229 2.165464,-4.092003 2.181266,-4.123607 0.03258,-0.06587 0.104457,-0.102255 0.176936,-0.08896 0.07217,0.01329 0.126945,0.07247 0.134543,0.14556 0.427029,4.255638 -0.285804,5.216058 -0.914459,6.063435 l -0.08645,0.116462 c -0.03132,0.04306 -0.08068,0.06746 -0.132647,0.06746 M 42.20176,21.454136 c -0.344984,1.2855 0.03355,3.206263 0.847377,4.29135 0.295981,0.394741 0.791989,0.867658 1.473824,0.878447 l 0.01648,0.16493 v -0.164629 c 1.742615,0 3.76875,-4.248346 3.960572,-4.65889 l 0.0057,-1.046495 c -0.468739,0.428625 -0.881865,0.850568 -1.25283,1.230113 -0.791082,0.808402 -1.41594,1.446934 -2.036691,1.577985 -0.07939,0.01799 -0.157643,-0.02599 -0.187041,-0.100054 -0.02977,-0.07468 -0.0014,-0.159538 0.06738,-0.201319 2.040799,-1.245614 2.707441,-5.088736 2.52982,-6.38563 -0.07719,-0.564763 -0.175033,-1.056673 -0.261416,-1.490922 -0.09656,-0.484006 -0.179516,-0.902148 -0.196913,-1.248115 -0.0066,-0.137739 0.002,-0.299784 0.0111,-0.4714 0.02119,-0.394058 0.04718,-0.884674 -0.138039,-1.079996 -0.08007,-0.08456 -0.206711,-0.112359 -0.386459,-0.08706 -0.706831,0.101271 -0.985416,1.563401 -1.0332,2.117981 -0.002,0.02187 -0.0079,0.04276 -0.01779,0.06207 -0.01711,0.03287 -1.723239,3.313532 -3.401885,6.611639 m 2.337687,5.499279 c -9.77e-4,0 -0.0209,-3.01e-4 -0.02182,-3.01e-4 -0.645145,-0.01008 -1.244018,-0.359568 -1.731826,-1.010105 -0.88574,-1.180355 -1.279798,-3.197676 -0.89744,-4.59204 0.0034,-0.01076 0.007,-0.02128 0.01207,-0.03108 1.598496,-3.140392 3.223965,-6.269768 3.396188,-6.60085 0.02909,-0.291269 0.263011,-2.23232 1.311402,-2.382359 0.30229,-0.04427 0.5163,0.02216 0.672036,0.186507 0.282688,0.297805 0.25359,0.843274 0.227913,1.324091 -0.0089,0.162651 -0.01713,0.316492 -0.01075,0.437134 0.01587,0.321888 0.09686,0.729013 0.190614,1.200336 0.08706,0.438729 0.186125,0.935726 0.264603,1.51052 0.118058,0.860672 -0.152858,3.486438 -1.319384,5.313834 0.123454,-0.123755 0.251388,-0.254501 0.384336,-0.390261 0.446634,-0.456505 0.952446,-0.973716 1.546614,-1.494112 0.04847,-0.04276 0.117442,-0.05348 0.176626,-0.02599 0.05918,0.02691 0.09687,0.08577 0.09656,0.150723 l -0.0079,1.453543 c -2.99e-4,0.02308 -0.0052,0.04587 -0.01489,0.06708 -0.09056,0.199424 -2.243337,4.883308 -4.274942,4.883308"
         style="fill:#b4975a;fill-opacity:1;fill-rule:nonzero;stroke:none;stroke-width:0.0759703" />
      <path
         id="path13"
         d="m 79.849429,21.455102 c -0.03513,1.295298 0.553669,2.033506 1.877454,1.250399 1.118061,-0.661626 2.035027,-2.172146 2.293323,-2.625766 v 1.588392 c 0,0 0.0099,0.04306 0.02811,0.114944 -0.02656,0.04529 -0.05393,0.09086 -0.08129,0.134844 -0.511279,1.000306 -1.575095,2.928667 -2.58581,3.800427 -1.39694,1.205045 -3.693454,0.662844 -3.70455,-3.886502 -0.01138,-4.549415 3.064502,-7.788571 4.711769,-8.376127 1.647727,-0.587479 3.67386,2.636176 -2.53901,7.999389 m 2.344067,-5.694596 c 0.15126,0.0076 -0.289067,2.229429 -2.236721,3.924483 0.06967,-0.933752 1.076885,-3.306918 2.236721,-3.924483"
         style="fill:#b4975a;fill-opacity:1;fill-rule:evenodd;stroke:none;stroke-width:0.0759703" />
      <path
         id="path14"
         d="m 82.043075,15.999811 c -0.823291,0.634356 -1.575705,2.182862 -1.825796,3.165388 1.219629,-1.219324 1.712223,-2.603889 1.825796,-3.165388 m -2.073617,3.786449 c -0.02507,0 -0.05036,-0.0057 -0.07376,-0.01741 -0.05987,-0.02972 -0.09527,-0.09276 -0.09025,-0.159539 0.07476,-1.005014 1.107574,-3.410089 2.323478,-4.057431 0.02622,-0.01363 0.05571,-0.02027 0.08547,-0.01901 0.06708,0.0034 0.144953,0.06777 0.166754,0.131052 0.105449,0.304792 -0.398844,2.424751 -2.30343,4.08182 -0.03076,0.02657 -0.06935,0.04049 -0.108255,0.04049 m 2.822305,-6.297954 c -0.112435,0 -0.225099,0.01998 -0.334952,0.05926 -1.658059,0.591275 -4.613915,3.843727 -4.60252,8.220619 0.0076,3.151786 1.127553,4.274935 2.173362,4.274935 0.428621,0 0.875559,-0.182332 1.258605,-0.512803 0.97903,-0.844259 2.016031,-2.712147 2.5463,-3.750438 0.01972,-0.032 0.03645,-0.05978 0.05243,-0.08577 -0.0083,-0.0336 -0.01288,-0.05226 -0.01288,-0.05226 -0.0023,-0.01202 -0.004,-0.02429 -0.004,-0.0367 v -1.002202 c -0.426959,0.659726 -1.175261,1.666335 -2.044824,2.181035 -0.740713,0.43805 -1.341567,0.452635 -1.720427,0.06329 -0.28299,-0.291196 -0.423538,-0.79579 -0.405152,-1.459923 0.0011,-0.04621 0.02179,-0.08988 0.05698,-0.119958 3.705464,-3.198971 4.516826,-5.706602 4.040491,-6.987088 -0.181565,-0.488414 -0.565979,-0.791989 -1.003569,-0.791989 m -2.764109,12.883992 c -1.204439,0 -2.494648,-1.209529 -2.502921,-4.603206 -0.01202,-4.750972 3.186963,-7.94872 4.821317,-8.531796 0.145637,-0.05189 0.295293,-0.07817 0.445713,-0.07817 0.578898,0 1.081823,0.385549 1.312775,1.00661 0.248419,0.668841 0.686773,3.166678 -4.079086,7.302362 -0.0046,0.529896 0.106053,0.936337 0.313381,1.149357 0.272583,0.279802 0.72331,0.233913 1.316793,-0.117146 1.082962,-0.64066 1.983967,-2.125578 2.233915,-2.565219 0.03645,-0.06458 0.113199,-0.09717 0.185365,-0.07787 0.07217,0.01929 0.122318,0.08448 0.122318,0.159233 v 1.568792 l 0.02357,0.09337 c 0.01064,0.04238 0.0046,0.08767 -0.01823,0.12535 -0.03041,0.05128 -0.05698,0.09557 -0.08357,0.138344 -0.534835,1.047101 -1.595989,2.95647 -2.617489,3.837424 -0.442833,0.382052 -0.966422,0.59257 -1.473832,0.59257"
         style="fill:#b4975a;fill-opacity:1;fill-rule:nonzero;stroke:none;stroke-width:0.0759703" />
      <path
         id="path15"
         d="m 64.640888,6.8711196 c 0,0 -4.499352,9.3187714 -6.154524,13.5237404 0.454228,0.07977 0.938543,0.219706 1.45134,0.433638 2.796932,1.169038 3.703566,1.579581 5.176098,2.14047 0,0 -1.173744,2.843504 -1.449742,3.333207 -0.275699,0.49001 -0.685329,0.766389 -1.615059,0.395047 -0.929654,-0.371269 -3.261641,-1.279419 -4.404011,-1.563701 -1.142139,-0.284588 -1.867352,-0.205728 -2.623566,0.402644 -0.755903,0.608067 -1.260122,1.066395 -1.882778,0.860973 -0.62265,-0.205422 -0.362146,-1.050597 -0.05508,-1.848289 0.307068,-0.797686 0.716934,-2.21963 1.402258,-3.02522 0.422325,-0.496313 1.331386,-1.087971 2.62068,-1.197141 0.853384,-2.306316 3.957458,-10.5441033 6.140928,-14.2998552 2.552303,-4.3917813 4.017625,-3.3496935 3.419054,0.2048159 -0.598647,3.5544316 -1.890759,6.5717533 -1.890759,6.5717533 l 0.29849,0.552684 c 0,0 -0.921749,2.298718 -1.898577,3.230953 -0.976909,0.931929 -1.425434,0.276684 -0.605868,-3.088206 0.819497,-3.365185 2.07111,-6.6275134 2.07111,-6.6275134"
         style="fill:#b4975a;fill-opacity:1;fill-rule:evenodd;stroke:none;stroke-width:0.0759703" />
      <path
         id="path16"
         d="m 56.560891,24.823487 c 0.328271,0 0.689435,0.05189 1.136367,0.162957 1.212109,0.301674 3.693459,1.27858 4.424984,1.571066 0.708724,0.282992 1.106051,0.218039 1.410543,-0.323251 0.231406,-0.409864 1.127174,-2.55831 1.376351,-3.159085 -0.941417,-0.361469 -1.69072,-0.678339 -2.890675,-1.18514 -0.577374,-0.244018 -1.263693,-0.533692 -2.131961,-0.896756 -0.479221,-0.20003 -0.955935,-0.342855 -1.416545,-0.423533 -0.0487,-0.0086 -0.09086,-0.0386 -0.115171,-0.08167 -0.02409,-0.04306 -0.0276,-0.09497 -0.0095,-0.140852 1.638379,-4.162576 6.114636,-13.4414621 6.159608,-13.5348296 0.03858,-0.079389 0.134167,-0.1142607 0.213634,-0.079389 0.08076,0.034814 0.119955,0.1275512 0.08835,0.2101302 -0.01236,0.032292 -1.257311,3.2914264 -2.065183,6.6072314 -0.605482,2.486743 -0.413655,3.082203 -0.303503,3.222749 0.02656,0.03389 0.05318,0.04747 0.09208,0.04747 0.05634,0 0.222213,-0.03288 0.543792,-0.339965 0.845174,-0.806579 1.667246,-2.710857 1.830281,-3.102485 l -0.261487,-0.483934 c -0.02369,-0.04437 -0.02622,-0.09686 -0.0063,-0.143125 0.01299,-0.02977 1.291496,-3.0413286 1.879966,-6.5340745 0.222823,-1.3231793 0.156349,-2.3490868 -0.177235,-2.7438281 -0.09376,-0.1107647 -0.204212,-0.1646295 -0.33716,-0.1646295 -0.290285,0 -1.124368,0.2738766 -2.600396,2.8134949 -2.165158,3.7247584 -5.238163,11.8675062 -6.128314,14.2745552 -0.02213,0.05979 -0.07688,0.101571 -0.140543,0.106967 -1.223125,0.103167 -2.098005,0.656536 -2.509234,1.139557 -0.533087,0.626454 -0.907238,1.678947 -1.181034,2.447846 -0.06898,0.194028 -0.132949,0.373853 -0.193041,0.529896 -0.138651,0.360552 -0.427718,1.11046 -0.266282,1.451341 0.0418,0.08835 0.111452,0.145938 0.219402,0.181416 0.490622,0.161739 0.92525,-0.183622 1.57989,-0.713212 l 0.148138,-0.119653 c 0.513407,-0.413049 1.016108,-0.597278 1.63018,-0.597278 m 6.247963,2.223048 c -0.235206,0 -0.499809,-0.06017 -0.808481,-0.183622 -0.72711,-0.290207 -3.190757,-1.260121 -4.382887,-1.556714 -0.414345,-0.103239 -0.759704,-0.15323 -1.056595,-0.15323 -0.534001,0 -0.972729,0.16174 -1.423841,0.524499 l -0.14746,0.119046 c -0.571986,0.462435 -1.023702,0.828079 -1.537793,0.828079 -0.11677,0 -0.235511,-0.01959 -0.352654,-0.05827 -0.193731,-0.06389 -0.332682,-0.182633 -0.413357,-0.353266 -0.204815,-0.432348 0.02501,-1.10947 0.256399,-1.710628 0.05918,-0.153763 0.122162,-0.330777 0.190229,-0.521914 0.282386,-0.792678 0.668237,-1.878375 1.240218,-2.550712 0.441545,-0.519185 1.359264,-1.11046 2.627976,-1.24432 0.936634,-2.527922 3.966571,-10.5301963 6.116838,-14.2289753 1.131963,-1.9477318 2.12938,-2.9774358 2.884679,-2.9774358 0.229198,0 0.432726,0.097469 0.58847,0.281397 0.407348,0.4818054 0.496308,1.5510898 0.250695,3.0113189 -0.543797,3.2271514 -1.670437,6.0481612 -1.871377,6.5350572 l 0.261717,0.483629 c 0.02317,0.04306 0.02599,0.09436 0.0076,0.139634 -0.03795,0.09527 -0.946443,2.342701 -1.937552,3.288536 -0.502621,0.479905 -0.895768,0.545086 -1.122465,0.257692 -0.313375,-0.399149 -0.234218,-1.545393 0.243111,-3.503836 0.330468,-1.357673 0.733791,-2.705464 1.096559,-3.8292185 -1.42863,3.0192215 -3.683662,7.8585425 -4.794122,10.6402775 0.422319,0.08835 0.854671,0.224798 1.288386,0.405835 0.869176,0.363065 1.555794,0.653344 2.133472,0.897363 1.263319,0.533391 2.025604,0.855658 3.038216,1.241206 0.04145,0.01581 0.07468,0.04776 0.09238,0.08866 0.01777,0.04078 0.01811,0.08699 0.0012,0.127857 -0.04778,0.116768 -1.180425,2.858695 -1.458326,3.351594 -0.157032,0.279191 -0.433335,0.650459 -1.011019,0.650459"
         style="fill:#b4975a;fill-opacity:1;fill-rule:nonzero;stroke:none;stroke-width:0.0759703" />
      <path
         id="path17"
         d="m 71.647878,11.095842 c 0.236799,-1.2364204 -0.04686,-2.3307 -0.634052,-2.4430603 -0.586871,-0.1126651 -1.255413,0.7989813 -1.492517,2.0354013 -0.237103,1.236422 0.04691,2.330701 0.633747,2.443061 0.587176,0.11266 1.255413,-0.798982 1.492822,-2.035402"
         style="fill:#b4975a;fill-opacity:1;fill-rule:evenodd;stroke:none;stroke-width:0.0759703" />
      <path
         id="path18"
         d="m 70.885363,8.8540243 c -0.415639,0 -1.005018,0.7309147 -1.231335,1.9112687 -0.109854,0.574562 -0.10795,1.132265 0.0057,1.570689 0.101269,0.390644 0.282685,0.638458 0.497302,0.679634 0.02277,0.0044 0.04588,0.0063 0.06868,0.0063 0.415633,0 1.005011,-0.730531 1.231634,-1.911263 0.109853,-0.574185 0.107651,-1.1319596 -0.006,-1.5703881 -0.101264,-0.3909452 -0.282305,-0.6387594 -0.497303,-0.6796298 -0.02277,-0.00437 -0.04588,-0.00659 -0.06868,-0.00659 m -0.659653,4.4974559 c -0.04398,0 -0.08736,-0.0039 -0.130441,-0.01271 -0.350068,-0.06678 -0.617867,-0.393757 -0.754311,-0.920157 -0.125652,-0.484996 -0.129453,-1.093974 -0.01006,-1.715719 0.257997,-1.3462744 0.997721,-2.2978019 1.684948,-2.1657661 0.350079,0.066777 0.617568,0.3937572 0.754316,0.9201567 0.125658,0.4849955 0.129453,1.0939744 0.01046,1.7154144 -0.242198,1.262322 -0.896153,2.178755 -1.554892,2.178755"
         style="fill:#b4975a;fill-opacity:1;fill-rule:nonzero;stroke:none;stroke-width:0.0759703" />
      <path
         id="path19"
         d="m 70.195623,14.631887 c 0.01328,0.322873 -0.02179,0.679557 -0.08478,0.984733 -0.157337,0.766009 -0.787892,2.124667 -1.338986,3.088505 -0.551467,0.963912 -1.11076,1.722023 -0.969302,2.669754 0.139629,0.931929 1.05637,1.520019 2.929645,-1.13386 -0.101643,0.773913 -0.111446,1.554508 -0.0165,2.347186 -0.45704,0.737218 -1.488343,2.377574 -1.833702,2.736153 -0.448915,0.466003 -2.118668,1.350754 -2.638376,-1.698245 -0.558085,-3.272428 0.08478,-6.888323 2.268629,-9.472841 0.692925,-0.820175 1.634354,-0.735695 1.683356,0.478615"
         style="fill:#b4975a;fill-opacity:1;fill-rule:evenodd;stroke:none;stroke-width:0.0759703" />
      <path
         id="path20"
         d="m 69.46646,13.792564 c -0.260503,0 -0.558004,0.174735 -0.815696,0.479832 -1.992631,2.358581 -2.827088,5.849727 -2.232242,9.338977 0.22852,1.340276 0.707442,2.049003 1.385171,2.049003 0.436227,0 0.826482,-0.286105 0.972119,-0.437134 0.23201,-0.240222 0.896757,-1.23323 1.782119,-2.659882 -0.06458,-0.570159 -0.07658,-1.149735 -0.03639,-1.730605 -0.778394,0.99939 -1.450121,1.505507 -2.00091,1.505507 -0.44975,0 -0.7825,-0.355161 -0.867964,-0.926232 -0.131051,-0.875562 0.283978,-1.578291 0.764797,-2.391779 0.07346,-0.124744 0.148748,-0.252606 0.224415,-0.383958 0.540072,-0.944541 1.166828,-2.291799 1.32029,-3.039805 0.06397,-0.309884 0.09375,-0.654567 0.08167,-0.944847 -0.02214,-0.546075 -0.23232,-0.859077 -0.577374,-0.859077 M 67.803693,25.98963 c -0.599256,0 -1.382359,-0.403023 -1.709642,-2.322797 -0.61126,-3.583606 0.250701,-7.175112 2.305023,-9.60685 0.320671,-0.379473 0.709414,-0.596978 1.067386,-0.596978 0.415329,0 0.871454,0.308972 0.90633,1.175035 0.01328,0.320978 -0.01777,0.684649 -0.08775,1.024618 -0.168042,0.818275 -0.821693,2.199649 -1.357585,3.136975 -0.07597,0.132947 -0.152324,0.262093 -0.226703,0.388054 -0.448525,0.759707 -0.835975,1.415635 -0.722327,2.175642 0.02909,0.194033 0.139939,0.645752 0.542205,0.645752 0.292867,0 0.953808,-0.2406 2.08987,-1.849884 0.04398,-0.06207 0.124365,-0.08615 0.194639,-0.05857 0.07027,0.02749 0.113044,0.09968 0.103247,0.174735 -0.101959,0.773002 -0.107047,1.549189 -0.0165,2.306311 0.0046,0.03709 -0.004,0.07437 -0.0234,0.106362 -0.544178,0.877764 -1.508696,2.403859 -1.855279,2.763727 -0.192506,0.199808 -0.663833,0.537872 -1.209522,0.537872"
         style="fill:#b4975a;fill-opacity:1;fill-rule:nonzero;stroke:none;stroke-width:0.0759703" />
      <path
         id="path21"
         d="m 73.791154,14.801681 c 0.417535,0.307987 0.535593,1.121476 0.141537,1.808708 -0.393756,0.687228 -1.40895,2.520015 -1.613765,4.14708 1.118665,-2.54342 2.142672,-4.470869 3.371874,-5.892502 1.228823,-1.421866 1.684644,-1.263923 1.85839,-0.640054 0.173142,0.624252 0.551087,1.96703 0.196921,2.62258 -0.354557,0.65555 -1.260507,2.045808 -1.685943,3.42817 -0.42543,1.382359 -0.598876,2.163865 -0.02369,1.800805 0.401357,-0.253516 1.228138,-1.095874 1.691566,-1.581404 -0.05789,0.433338 -0.08897,0.881561 -0.08767,1.343389 4.83e-4,0.240595 0.0079,0.468511 0.02058,0.686544 -0.503609,0.729014 -1.319381,1.907545 -1.671955,2.403252 -0.527693,0.742309 -1.063591,1.279419 -1.662238,1.034796 -0.598572,-0.245008 -1.236038,-3.199044 0.954417,-7.76487 0,0 -1.442831,2.235431 -1.994528,3.870695 -0.551088,1.634959 -1.110765,3.167362 -1.654264,3.104081 -0.241887,-0.02817 -0.535588,-0.565068 -0.744807,-1.413739 -0.496394,-2.011319 -0.297277,-3.928891 0.386765,-5.84403 0.866061,-2.423462 1.803385,-3.691482 2.516824,-3.113501"
         style="fill:#b4975a;fill-opacity:1;fill-rule:evenodd;stroke:none;stroke-width:0.0759703" />
      <path
         id="path22"
         d="m 75.293629,17.970565 c 0.02748,0 0.05508,0.0067 0.08038,0.0209 0.07567,0.04248 0.105753,0.136744 0.06807,0.214921 -1.774213,3.697862 -1.646962,6.243561 -1.292485,7.164701 0.09216,0.239005 0.190614,0.351059 0.252299,0.37636 0.07817,0.032 0.154146,0.04747 0.23201,0.04747 0.447013,0 0.893951,-0.547976 1.233618,-1.025296 0.344369,-0.484919 1.133245,-1.62387 1.638073,-2.354784 -0.01069,-0.203827 -0.01673,-0.416241 -0.01742,-0.639065 -4.83e-4,-0.293776 0.01138,-0.589453 0.03639,-0.883839 -0.505512,0.516599 -1.0683,1.058879 -1.387982,1.260504 -0.250097,0.158627 -0.436221,0.144648 -0.542584,4.85e-4 -0.157332,-0.21302 -0.08227,-0.677656 0.32128,-1.98883 0.342472,-1.112972 0.989517,-2.227533 1.417459,-2.965057 0.111147,-0.19152 0.208006,-0.357973 0.281092,-0.4932 0.319072,-0.590291 -0.04841,-1.915066 -0.205425,-2.481046 -0.09937,-0.35645 -0.230722,-0.35645 -0.280408,-0.35645 -0.149742,0 -0.517586,0.135226 -1.300086,1.041176 -1.101871,1.274023 -2.102478,3.02393 -3.345893,5.850944 -0.03289,0.07475 -0.116769,0.113649 -0.194639,0.09246 -0.07885,-0.02148 -0.129452,-0.09815 -0.119345,-0.179136 0.145333,-1.153536 0.694822,-2.5694 1.634354,-4.208465 0.361773,-0.630861 0.23961,-1.346574 -0.09656,-1.594467 -0.09055,-0.07278 -0.174729,-0.106362 -0.263994,-0.106362 -0.548892,0 -1.29659,1.175036 -1.999927,3.142977 -0.717009,2.005927 -0.841678,3.886882 -0.382057,5.749072 0.231711,0.939221 0.51151,1.278808 0.603965,1.289597 0.470332,0 1.151868,-2.021729 1.479144,-2.993238 0.552083,-1.635876 1.952823,-3.815314 2.012007,-3.907086 0.03162,-0.04877 0.08448,-0.07537 0.138646,-0.07537 m -0.659728,8.153842 c -0.119961,0 -0.23991,-0.02429 -0.357064,-0.07217 -0.169032,-0.06928 -0.319682,-0.263922 -0.434549,-0.563095 -0.296282,-0.770111 -0.449824,-2.601987 0.41085,-5.224567 -0.308971,0.59257 -0.608375,1.231329 -0.797994,1.79389 -0.740714,2.197069 -1.226926,3.285041 -1.829672,3.214773 -0.470033,-0.0547 -0.775813,-1.093296 -0.885361,-1.537722 -0.475731,-1.927144 -0.347566,-3.869785 0.391549,-5.938692 0.547977,-1.533692 1.39376,-3.361393 2.310191,-3.361393 0.165536,0 0.321884,0.05888 0.465319,0.17504 0.507404,0.373847 0.592868,1.300691 0.180731,2.018916 -0.478307,0.834765 -0.818583,1.552685 -1.059487,2.161663 0.89106,-1.826406 1.689054,-3.100812 2.550101,-4.097011 0.681156,-0.787893 1.173445,-1.155059 1.549499,-1.155059 0.196835,0 0.458937,0.10066 0.59219,0.578669 0.187113,0.674543 0.565375,2.037909 0.183319,2.74504 -0.07438,0.137661 -0.172838,0.307076 -0.285881,0.50171 -0.420647,0.724911 -1.056291,1.819497 -1.387678,2.896379 -0.111147,0.360553 -0.438728,1.425434 -0.380154,1.670437 0.0215,-0.0073 0.05726,-0.02318 0.111072,-0.05698 0.284283,-0.179515 0.873961,-0.732204 1.66056,-1.555875 0.04939,-0.05158 0.126336,-0.06579 0.18993,-0.03481 0.06427,0.03069 0.101344,0.09937 0.09215,0.170022 -0.05828,0.436833 -0.08707,0.88126 -0.08577,1.321206 4.83e-4,0.237404 0.0072,0.462507 0.01995,0.677428 0.0023,0.0367 -0.0079,0.07308 -0.02909,0.103166 -0.503609,0.729621 -1.320295,1.909063 -1.672949,2.405153 -0.408946,0.575474 -0.907238,1.163869 -1.50171,1.163869"
         style="fill:#b4975a;fill-opacity:1;fill-rule:nonzero;stroke:none;stroke-width:0.0759703" />
      <path
         id="path23"
         d="m 96.164854,9.2020481 c 0,0 0.306165,0.5450861 -0.490013,2.7646439 -0.795407,2.219629 -3.0806,8.175413 -3.482486,9.581171 -0.401127,1.406064 -0.613842,1.966652 0.992938,1.856188 1.606774,-0.11046 5.327054,-1.769124 6.776572,-4.91309 1.449515,-3.143583 2.615665,-8.6409603 -3.797011,-9.2889129 m -0.740708,0.1262612 c 0,0 -2.788877,6.2878547 -4.065949,9.6526607 -1.276301,3.364585 -1.985105,7.882933 -0.283363,8.214694 1.701737,0.331688 6.240214,-1.074376 8.556557,-4.739345 2.316339,-3.665274 3.355619,-7.614147 2.631619,-12.195164 -0.72476,-4.5813288 -3.782578,-6.3514413 -6.933832,-5.5930295 -3.151254,0.7581889 -5.861124,2.4488354 -6.097394,5.0552305 -0.23627,2.606395 -0.409481,4.186582 1.008128,3.68077 1.418368,-0.505505 2.788877,-2.369669 2.788877,-2.369669 -1.134239,0.173818 -2.159081,0.442526 -2.159081,0.442526 1.371269,-0.758412 4.365267,-2.1166917 4.554438,-2.1486737"
         style="fill:#b4975a;fill-opacity:1;fill-rule:evenodd;stroke:none;stroke-width:0.0759703" />
      <path
         id="path24"
         d="m 96.388964,9.3283093 c 0.03875,0.358356 -0.006,1.1256557 -0.545465,2.6307837 -0.270456,0.75431 -0.718682,1.956242 -1.193499,3.228441 -0.947351,2.540608 -2.021573,5.419891 -2.285193,6.342631 l -0.03795,0.131959 c -0.191448,0.667934 -0.330473,1.150651 -0.179288,1.350375 0.114717,0.152547 0.454303,0.204816 1.040037,0.164325 1.637165,-0.112438 5.255635,-1.818886 6.6383,-4.817821 0.599414,-1.300391 1.854444,-4.569324 0.561424,-6.834537 C 99.69144,10.307416 98.34752,9.5689086 96.389,9.3283093 M 92.841182,23.519301 c -0.500643,0 -0.796172,-0.09527 -0.95647,-0.308672 -0.249942,-0.330772 -0.10028,-0.851173 0.125348,-1.639366 l 0.038,-0.131658 c 0.267415,-0.935119 1.343919,-3.821011 2.293553,-6.36701 0.474052,-1.271521 0.922278,-2.472463 1.191975,-3.224572 0.739954,-2.0629039 0.500643,-2.6292615 0.497607,-2.6346584 -0.02426,-0.053785 -0.01972,-0.1192694 0.01443,-0.167437 0.03421,-0.04776 0.09269,-0.074981 0.149668,-0.070879 2.193266,0.2216023 3.69976,1.0246905 4.477707,2.3860824 1.36974,2.398161 0.0729,5.789331 -0.54775,7.13591 -1.506503,3.267643 -5.308827,4.897816 -6.914842,5.008353 -0.135225,0.0091 -0.257543,0.01391 -0.369218,0.01391 M 95.43787,9.1007116 c 0.05013,0 0.09876,0.023078 0.129907,0.063664 0.03726,0.04776 0.04479,0.1120545 0.02052,0.1677428 -0.02811,0.062675 -2.801791,6.3220376 -4.062143,9.6441516 -1.017246,2.68077 -1.704778,6.235279 -0.976983,7.542579 0.142825,0.257085 0.329714,0.404846 0.571297,0.452024 0.149661,0.02948 0.325161,0.04398 0.520403,0.04398 1.971433,0 5.834533,-1.496619 7.865225,-4.709486 2.431814,-3.848591 3.284974,-7.800276 2.607314,-12.08152 -0.55686,-3.5212319 -2.567804,-5.6237163 -5.377954,-5.6237163 -0.442908,0 -0.898735,0.055382 -1.353797,0.1648574 -1.698706,0.4090257 -5.681836,1.70592 -5.972799,4.9102771 l -0.01443,0.163946 c -0.148144,1.6308608 -0.265897,2.9188628 0.09116,3.3091238 0.139031,0.152929 0.368465,0.160527 0.712604,0.03796 0.99825,-0.355772 1.990429,-1.433261 2.449292,-1.982832 -0.935956,0.164629 -1.713132,0.367244 -1.722256,0.36975 -0.079,0.02148 -0.163334,-0.0209 -0.193719,-0.09815 -0.0311,-0.07688 0,-0.164857 0.07217,-0.205121 1.292261,-0.71473 4.353112,-2.124289 4.606096,-2.1670597 0.0099,-0.00144 0.01903,-0.00241 0.02811,-0.00241 M 91.640888,27.344179 c -0.216516,0 -0.413282,-0.01712 -0.583457,-0.05037 -0.338068,-0.06579 -0.605483,-0.272505 -0.796172,-0.614982 -0.784776,-1.409253 -0.112434,-5.000453 0.957229,-7.819645 1.087141,-2.864999 3.294085,-7.904049 3.907927,-9.2962062 -0.612324,0.2620939 -1.919775,0.8577822 -3.032748,1.4092492 0.285652,-0.05667 0.600929,-0.114256 0.923802,-0.163713 0.06609,-0.0098 0.13143,0.02027 0.165622,0.07726 0.03415,0.05728 0.03191,0.129456 -0.0076,0.183016 -0.05774,0.07787 -1.417615,1.910658 -2.866374,2.42718 -0.485453,0.173518 -0.834916,0.128541 -1.066621,-0.125655 -0.454309,-0.497608 -0.344151,-1.716253 -0.176253,-3.5611179 l 0.01518,-0.1639459 C 89.299471,7.2391895 91.567946,5.3440279 95.30418,4.4447648 95.785074,4.3292143 96.265968,4.270336 96.735466,4.270336 c 2.942334,0 5.127244,2.2617172 5.703104,5.901923 0.69057,4.363596 -0.17777,8.389728 -2.654412,12.308514 -2.120336,3.354402 -6.038895,4.863405 -8.143276,4.863405"
         style="fill:#b4975a;fill-opacity:1;fill-rule:nonzero;stroke:none;stroke-width:0.0759703" />
      <path
         id="path25"
         d="m 108.38547,18.347225 c 0,0 -1.3234,2.969765 -2.33154,4.407506 -1.00888,1.43744 -1.8438,2.085087 -1.79669,1.405836 0.0471,-0.679329 -0.37833,-2.859379 4.12823,-5.813342 m 1.11829,-0.410922 c 0,0 0.7164,0.987312 0.0934,2.511811 -0.6222,1.524805 -1.00661,1.99043 -1.16463,3.270227 -0.14282,1.159161 1.16311,1.138268 2.38243,-0.07377 -0.0425,0.580871 -0.0182,1.183546 0.0494,1.755228 -0.5204,0.799892 -1.30518,1.910958 -2.08463,2.647265 -1.33936,1.263617 -2.96285,-0.032 -1.57638,-4.755147 -0.85088,1.832487 -1.94637,4.135002 -2.64834,4.340502 -0.70045,0.205121 -1.74732,-1.544103 -1.99955,-3.961558 -0.25221,-2.417158 0.80377,-4.675985 3.11935,-6.761378 2.31711,-2.085392 3.48249,-2.085087 3.92388,-1.263695 0.44139,0.82147 0.74071,1.99043 -0.095,2.290514"
         style="fill:#b4975a;fill-opacity:1;fill-rule:evenodd;stroke:none;stroke-width:0.0759703" />
      <path
         id="path26"
         d="m 108.00334,18.825535 c -3.54706,2.477626 -3.55846,4.324014 -3.56377,5.131811 0,0.08805 -0.001,0.163718 -0.005,0.227304 -0.003,0.04427 -10e-4,0.07346 0.002,0.09086 0.16409,-0.04209 0.69133,-0.455826 1.49587,-1.602676 0.73158,-1.043304 1.64323,-2.928056 2.07171,-3.8473 m -3.5919,5.782954 c -0.0851,0 -0.15954,-0.03098 -0.21348,-0.08987 -0.0737,-0.07818 -0.10407,-0.195016 -0.0927,-0.356761 0.005,-0.05758 0.005,-0.126567 0.005,-0.206716 0.005,-0.895768 0.019,-2.993844 4.19738,-5.732887 0.0608,-0.03985 0.14054,-0.03549 0.19676,0.01232 0.0555,0.04718 0.0729,0.125655 0.0441,0.192504 -0.0547,0.121554 -1.3424,3.000836 -2.34749,4.434781 -0.28793,0.409937 -1.26643,1.746639 -1.78987,1.746639 m 2.80483,-1.468738 c 0.019,0 0.0388,0.0034 0.0577,0.01076 0.0805,0.0304 0.12458,0.117751 0.10028,0.200335 -0.64195,2.184836 -0.69362,3.931471 -0.13827,4.672868 0.34567,0.461523 0.91317,0.416246 1.44268,-0.08395 0.75059,-0.708048 1.51105,-1.777027 2.02765,-2.567499 -0.0509,-0.458633 -0.0714,-0.902453 -0.0623,-1.324702 -0.53103,0.443821 -1.09093,0.700829 -1.546,0.700829 v 0 c -0.26513,0 -0.48317,-0.08767 -0.62979,-0.25359 -0.1132,-0.128162 -0.23778,-0.368073 -0.18689,-0.784013 0.11548,-0.934436 0.34719,-1.443821 0.69741,-2.214844 0.14055,-0.308972 0.30009,-0.65912 0.47862,-1.097471 0.58118,-1.423233 -0.0676,-2.34369 -0.0744,-2.352883 -0.0304,-0.0418 -0.0388,-0.09565 -0.0236,-0.144954 0.0152,-0.04976 0.0524,-0.08896 0.1018,-0.106434 0.18006,-0.06488 0.29857,-0.177847 0.36315,-0.346273 0.17245,-0.44944 -0.0722,-1.179138 -0.35782,-1.71154 -0.15347,-0.2858 -0.38745,-0.424828 -0.71337,-0.424828 -0.47025,0 -1.36443,0.300768 -2.95526,1.733117 -2.27911,2.05181 -3.31079,4.27995 -3.06617,6.621744 0.25071,2.406743 1.28163,3.97075 1.78987,3.820405 0.6617,-0.193727 1.88711,-2.833399 2.54502,-4.251841 0.0281,-0.05949 0.0866,-0.09527 0.14966,-0.09527 m 0.6184,5.540149 c -0.33959,2.86e-4 -0.6374,-0.15855 -0.86227,-0.459012 -0.47785,-0.638458 -0.57282,-1.844186 -0.28793,-3.410395 -0.77338,1.580493 -1.49358,2.823522 -2.0702,2.992254 -0.0524,0.01552 -0.10635,0.02308 -0.16181,0.02308 -0.87746,2.86e-4 -1.81494,-1.889087 -2.04817,-4.125203 -0.25602,-2.452553 0.81212,-4.774366 3.17329,-6.900629 1.33936,-1.206029 2.40751,-1.817591 3.17557,-1.817591 0.44595,0 0.79313,0.206712 1.00281,0.598267 0.15574,0.289596 0.64271,1.288613 0.37606,1.985334 -0.0767,0.198207 -0.20436,0.350758 -0.38138,0.454914 0.18537,0.358658 0.51812,1.261717 0.0122,2.502239 -0.18232,0.444126 -0.34186,0.797387 -0.48393,1.108865 -0.33807,0.743604 -0.56066,1.234826 -0.67006,2.11897 -0.0289,0.232624 0.008,0.414651 0.10636,0.525794 0.0836,0.09458 0.21196,0.142141 0.38289,0.142446 v 0 c 0.45051,0 1.06815,-0.336857 1.61362,-0.878752 0.0478,-0.04849 0.12231,-0.06176 0.18461,-0.03288 0.0623,0.02846 0.10028,0.09306 0.0957,0.161434 -0.0395,0.53681 -0.0228,1.116768 0.0486,1.724534 0.004,0.03796 -0.005,0.07658 -0.0259,0.108864 -0.52647,0.809693 -1.31961,1.931552 -2.1097,2.676974 -0.34718,0.327358 -0.71716,0.500492 -1.07042,0.500492"
         style="fill:#b4975a;fill-opacity:1;fill-rule:nonzero;stroke:none;stroke-width:0.0759703" />
      <path
         id="path27"
         d="m 114.31422,18.217317 c 0.30691,0.229201 0.53559,0.821392 0.20435,1.492822 -0.33047,0.671348 -1.88862,3.009724 -1.96764,4.478763 1.1031,-2.259132 3.08821,-5.213173 3.78182,-5.845323 0.69285,-0.631773 1.52853,-1.121782 1.8438,0.268785 0.31452,1.390262 0.0152,2.321808 -0.15801,2.574791 -0.17322,0.252906 -1.40242,2.622503 -1.79671,3.854822 -0.37681,1.179743 0.35782,0.954417 1.99803,-0.370052 -0.0281,0.353643 -0.0334,0.746789 -0.0122,1.191521 0.01,0.216817 0.0251,0.433333 0.0448,0.648864 -0.45582,0.562183 -1.17906,1.471319 -1.68351,2.178833 -0.78781,1.10598 -1.938,1.390567 -2.30114,-0.189319 -0.36162,-1.579577 0.61536,-4.739645 1.49737,-6.54045 -1.41761,2.322491 -2.00029,3.143583 -2.4584,4.202457 -0.45658,1.058195 -0.90709,2.164175 -1.43508,2.100889 -0.528,-0.06298 -1.47991,-3.427865 -0.8805,-5.734482 0.59864,-2.306694 1.73973,-3.886197 2.02309,-4.273341 0.28337,-0.387148 0.79618,-0.489703 1.29986,-0.03957"
         style="fill:#b4975a;fill-opacity:1;fill-rule:evenodd;stroke:none;stroke-width:0.0759703" />
      <path
         id="path28"
         d="m 115.77969,21.809656 c 0.0266,0 0.0539,0.0066 0.079,0.02022 0.0775,0.04248 0.10788,0.138039 0.0684,0.216894 -0.81287,1.65897 -1.84684,4.850037 -1.48446,6.430907 0.10256,0.444732 0.32516,0.974627 0.80757,0.974627 0.37453,-2.86e-4 0.82276,-0.315585 1.19881,-0.84358 0.50521,-0.709716 1.23225,-1.622347 1.64705,-2.135456 -0.0167,-0.195622 -0.0296,-0.392462 -0.0388,-0.589374 -0.0144,-0.300695 -0.0167,-0.578975 -0.008,-0.842669 -1.08182,0.842058 -1.4761,0.94553 -1.68122,0.94553 -0.16866,0 -0.2621,-0.07947 -0.30996,-0.145938 -0.117,-0.159238 -0.1094,-0.425133 0.0213,-0.835982 0.39353,-1.230112 1.62121,-3.610803 1.81798,-3.897892 0.1337,-0.195322 0.44594,-1.064577 0.13294,-2.445645 -0.22335,-0.983515 -0.6936,-0.98511 -1.57183,-0.183239 -0.63663,0.580186 -2.60883,3.468051 -3.74535,5.795866 -0.0342,0.07027 -0.11167,0.107041 -0.18916,0.08706 -0.076,-0.01959 -0.12688,-0.08987 -0.12307,-0.168044 0.0638,-1.194638 1.04839,-2.899569 1.6364,-3.91818 0.1565,-0.271597 0.28033,-0.485907 0.34871,-0.624557 0.30768,-0.624247 0.0676,-1.121248 -0.15574,-1.288001 -0.40265,-0.358352 -0.81896,-0.335257 -1.06815,0.005 -0.90177,1.230113 -1.61058,2.728026 -1.99726,4.217352 -0.60093,2.313909 0.41252,5.423309 0.7445,5.53035 h 10e-4 c 0.39733,0 0.84176,-1.030694 1.19882,-1.859378 l 0.0615,-0.144347 c 0.34187,-0.790777 0.75666,-1.457722 1.50953,-2.668159 0.27046,-0.435233 0.58574,-0.942717 0.95951,-1.554586 0.0304,-0.05059 0.0851,-0.07878 0.14055,-0.07878 m -0.52953,7.971815 c -0.31603,0 -0.88277,-0.159839 -1.12815,-1.230113 -0.27046,-1.178454 0.16105,-3.119805 0.73919,-4.777557 -0.68298,1.099366 -1.07194,1.734028 -1.38874,2.46775 l -0.0615,0.144342 c -0.49381,1.144042 -0.93064,2.125274 -1.54447,2.055307 -0.12232,-0.01484 -0.2378,-0.104079 -0.35327,-0.273494 -0.5318,-0.779305 -1.20565,-3.592417 -0.66778,-5.66611 0.39657,-1.528601 1.12512,-3.066017 2.05044,-4.329029 0.3601,-0.49221 1.01649,-0.534981 1.5422,-0.06526 0.3753,0.279497 0.59637,0.972426 0.24311,1.688445 -0.0737,0.148144 -0.19981,0.366939 -0.35858,0.64355 -0.37378,0.646052 -0.91013,1.575174 -1.2558,2.453238 1.10538,-1.98192 2.55945,-4.101802 3.16874,-4.657599 0.50064,-0.45681 0.89113,-0.66953 1.22844,-0.66953 0.43455,0 0.73311,0.344373 0.88658,1.023096 0.3411,1.502927 -0.016,2.462053 -0.18233,2.704548 -0.15194,0.221535 -1.38342,2.587102 -1.77543,3.812129 -0.13751,0.430524 -0.0767,0.53149 -0.0691,0.541589 0.006,0.0095 0.0334,0.01048 0.0441,0.01048 0.14966,0 0.57737,-0.142825 1.76251,-1.100661 0.0517,-0.04116 0.12232,-0.0481 0.18005,-0.01741 0.0585,0.0304 0.0927,0.09306 0.0874,0.158549 -0.0281,0.356451 -0.0319,0.739497 -0.0114,1.170628 0.01,0.21462 0.0251,0.42893 0.0441,0.641649 0.004,0.04267 -0.009,0.08546 -0.0357,0.118663 -0.40492,0.498597 -1.15931,1.444049 -1.67743,2.170862 -0.44443,0.623941 -0.97927,0.981915 -1.467,0.981915"
         style="fill:#b4975a;fill-opacity:1;fill-rule:nonzero;stroke:none;stroke-width:0.0759703" />
      <path
         id="path29"
         d="m 121.66208,22.891552 c 0,0 -0.31452,1.200337 0.32363,1.247821 0.63815,0.04776 1.25352,-1.113656 1.6478,-2.551091 0.39429,-1.437745 0.36846,-2.6301 -0.34794,-3.19897 -0.71716,-0.56917 -2.55109,0.671047 -3.48097,2.345591 -0.92988,1.674844 -1.7496,2.480439 -1.62273,5.134318 0.12536,2.654257 0.94507,5.292334 2.50551,5.229354 1.2763,-0.05158 2.57312,-2.006916 3.34726,-3.399684 -0.0289,-0.612547 -0.0175,-1.198431 0.0486,-1.769201 -0.68601,0.593559 -2.24493,1.879966 -3.01831,2.025302 -1.00813,0.189242 -2.89448,-2.43425 0.59713,-5.06344"
         style="fill:#b4975a;fill-opacity:1;fill-rule:evenodd;stroke:none;stroke-width:0.0759703" />
      <path
         id="path30"
         d="m 122.85178,18.426691 c -0.73692,0 -2.10514,0.9861 -2.89068,2.401051 -0.15498,0.279491 -0.30692,0.534904 -0.45278,0.778694 -0.72704,1.22153 -1.25276,2.103701 -1.14944,4.267949 0.12004,2.525412 0.8729,5.073539 2.28596,5.073539 l 0.0478,-9.77e-4 c 0.8957,-0.03642 2.02767,-1.198741 3.18773,-3.274635 -0.0205,-0.478004 -0.0167,-0.920835 0.0137,-1.341561 -0.84327,0.708426 -2.08766,1.667247 -2.78659,1.798599 -0.0433,0.0086 -0.0896,0.01271 -0.13599,0.01271 -0.54167,0 -1.11069,-0.527083 -1.35303,-1.252906 -0.21272,-0.634658 -0.44671,-2.306011 1.95776,-4.11631 0.0555,-0.0415 0.13219,-0.04398 0.18992,-0.0054 0.0585,0.03927 0.0859,0.110765 0.0676,0.178531 -0.0691,0.265289 -0.12612,0.7591 0.0152,0.956623 0.0388,0.05379 0.0881,0.08007 0.16106,0.08546 h 0.002 c 0.49457,0 1.07726,-0.976902 1.4761,-2.430449 0.28642,-1.04748 0.46874,-2.422473 -0.29248,-3.02651 -0.0866,-0.06929 -0.20284,-0.104462 -0.34339,-0.104462 m -2.20694,12.850488 c -1.742,0 -2.49715,-2.902072 -2.61491,-5.387297 -0.10787,-2.262934 0.46722,-3.229052 1.19578,-4.451872 0.14358,-0.241206 0.29401,-0.493505 0.44747,-0.769807 0.77337,-1.393451 2.22897,-2.570994 3.1786,-2.570994 0.21728,0 0.40189,0.05918 0.54851,0.176024 0.71336,0.566281 0.85391,1.732128 0.40492,3.371494 -0.22488,0.818279 -0.84782,2.740938 -1.8195,2.671654 -0.16941,-0.01237 -0.30996,-0.08964 -0.40491,-0.222591 -0.15043,-0.210441 -0.16258,-0.53149 -0.13979,-0.793895 -1.87951,1.572589 -1.69034,2.948038 -1.51105,3.485148 0.23171,0.692018 0.76654,1.085469 1.11752,1.020894 0.51356,-0.09656 1.61285,-0.839779 2.94082,-1.987923 0.0517,-0.04461 0.12459,-0.05288 0.1846,-0.02119 0.06,0.032 0.0942,0.09716 0.0866,0.164629 -0.0623,0.536805 -0.0783,1.106886 -0.0478,1.742228 0.002,0.03069 -0.005,0.06108 -0.0205,0.08798 -1.26187,2.269315 -2.43485,3.441844 -3.48477,3.484237 z"
         style="fill:#b4975a;fill-opacity:1;fill-rule:nonzero;stroke:none;stroke-width:0.0759703" />
      <path
         id="path31"
         d="m 126.04254,27.279232 c 0,0 3.37233,-1.500721 3.87677,-4.044141 0.35859,-1.808098 -0.23095,-3.249029 -1.47306,-3.238546 -1.09095,0.0092 -1.89698,0.834082 -2.51539,1.628884 -1.71617,2.207629 -2.06791,4.218642 -1.85748,6.680694 0.23627,2.764722 1.22921,4.09162 2.34749,4.17048 1.11905,0.07908 2.63162,-1.500721 3.26218,-2.938467 v -1.69034 c 0,0 -1.51258,1.485224 -2.48956,1.564007 -0.97698,0.07916 -1.15095,-2.132571 -1.15095,-2.132571 m 2.20695,-4.834234 c 0,0 -1.78075,0.900557 -2.15909,3.159389 1.46547,-1.216138 2.14313,-2.084709 2.15909,-3.159389"
         style="fill:#b4975a;fill-opacity:1;fill-rule:evenodd;stroke:none;stroke-width:0.0759703" />
      <path
         id="path32"
         d="m 128.06943,22.770988 c -0.44519,0.310873 -1.32948,1.071491 -1.70098,2.402569 1.08714,-0.952139 1.58627,-1.655551 1.70098,-2.402569 m -1.96839,3.010941 c -0.0281,0 -0.0562,-0.0073 -0.082,-0.02211 -0.0593,-0.03419 -0.0919,-0.101954 -0.0798,-0.16972 0.38745,-2.314516 2.17048,-3.241053 2.24645,-3.279343 0.0509,-0.0257 0.11243,-0.02318 0.16105,0.0072 0.0494,0.03079 0.0782,0.08456 0.0782,0.14214 -0.0182,1.216139 -0.86226,2.15825 -2.21834,3.283829 -0.0304,0.02497 -0.0684,0.03796 -0.10559,0.03796 m 2.36952,-5.60822 c -1.05523,0.0089 -1.83545,0.841373 -2.39915,1.565675 -1.52625,1.96285 -2.05424,3.865003 -1.8233,6.56545 0.20512,2.398766 1.04612,3.939073 2.19555,4.020357 1.00358,0.07597 2.47512,-1.444349 3.08517,-2.80901 V 28.23763 c -0.49457,0.440629 -1.53916,1.288689 -2.31103,1.351059 -1.10689,0.08798 -1.30973,-2.045201 -1.32872,-2.2839 -0.005,-0.06928 0.0342,-0.134849 0.0972,-0.163335 0.0334,-0.01459 3.30092,-1.496925 3.78257,-3.925778 0.215,-1.086987 0.079,-2.058802 -0.36542,-2.599786 -0.24082,-0.293398 -0.55534,-0.442225 -0.93291,-0.442225 m -1.957,12.483248 c -0.0312,0 -0.0623,-9.78e-4 -0.0935,-0.0034 -1.34239,-0.09496 -2.27684,-1.71025 -2.50019,-4.320824 -0.23854,-2.791918 0.30921,-4.760465 1.89167,-6.795868 0.60852,-0.782796 1.45939,-1.682442 2.64377,-1.692547 v 0 c 0.49001,0 0.90025,0.194333 1.20262,0.562489 0.50596,0.616348 0.66778,1.69004 0.43379,2.872674 -0.4695,2.367085 -3.26445,3.825113 -3.8631,4.112207 0.0653,0.588162 0.33122,1.870167 0.92456,1.870167 l 0.038,-0.0014 c 0.90557,-0.07316 2.37256,-1.503004 2.387,-1.517206 0.0471,-0.04655 0.11851,-0.05857 0.17929,-0.03288 0.0608,0.0259 0.10104,0.08699 0.10104,0.153462 v 1.686923 c 0,0.02279 -0.005,0.04558 -0.0144,0.0661 -0.64347,1.468128 -2.13553,3.040111 -3.33055,3.040111"
         style="fill:#b4975a;fill-opacity:1;fill-rule:nonzero;stroke:none;stroke-width:0.0759703" />
      <path
         id="path33"
         d="m 129.71647,27.833894 0.83568,-1.358584 c 0,0 -1.16615,-0.758184 -0.39428,-3.080297 0.77185,-2.322497 2.42649,-3.475655 2.03221,-0.75849 0,0 1.86582,0.15004 2.22821,0.608144 0.36238,0.458328 0.7088,2.377496 0.44139,3.041023 -0.26818,0.663754 -1.22085,1.540607 -1.49738,2.953963 -0.26362,1.355768 -0.24615,2.0433 1.73441,0.997717 l -0.001,4.85e-4 c -0.0274,0.325685 -0.0236,0.930944 0.0653,1.68875 -0.46418,0.692246 -1.20717,1.71344 -1.77544,2.076199 -0.8896,0.568865 -1.74731,-0.02371 -1.90456,-2.725141 -0.15727,-2.701357 1.19728,-4.23376 1.55967,-4.960568 -0.6298,0.142141 -1.22921,-0.04708 -1.22921,-0.04708 0,0 -1.22844,2.227151 -2.09527,3.254042 z"
         style="fill:#b4975a;fill-opacity:1;fill-rule:evenodd;stroke:none;stroke-width:0.0759703" />
      <path
         id="path34"
         d="m 133.05386,26.165276 c 0.0494,0 0.098,0.02279 0.12915,0.06298 0.0395,0.04999 0.0463,0.118058 0.0182,0.175035 -0.0691,0.138039 -0.16941,0.300084 -0.2864,0.487503 -0.5166,0.833475 -1.38267,2.228139 -1.25656,4.390108 0.10256,1.758413 0.52344,2.766923 1.154,2.766617 0.15346,0 0.32059,-0.05728 0.4976,-0.170932 0.40644,-0.25921 1.00662,-0.960722 1.69414,-1.978725 -0.0714,-0.624858 -0.0798,-1.087293 -0.0737,-1.371575 -0.93519,0.462507 -1.429,0.509991 -1.68426,0.200714 -0.22183,-0.269086 -0.18233,-0.736912 -0.0327,-1.506113 0.18841,-0.964828 0.67386,-1.677051 1.06359,-2.249033 0.19145,-0.281775 0.35782,-0.525182 0.44215,-0.735017 0.24083,-0.594465 -0.076,-2.445033 -0.41784,-2.877381 -0.23095,-0.292865 -1.41761,-0.490388 -2.11122,-0.546076 -0.0456,-0.0039 -0.0874,-0.02599 -0.11548,-0.06169 -0.0289,-0.03549 -0.041,-0.08136 -0.0342,-0.12634 0.13978,-0.965128 -0.008,-1.256702 -0.0767,-1.33708 -0.0304,-0.03549 -0.0638,-0.05097 -0.10635,-0.05097 -0.32363,0 -1.05523,0.791384 -1.53081,2.222137 -0.71716,2.157867 0.28565,2.862191 0.32895,2.890983 0.0729,0.04938 0.0957,0.148522 0.0494,0.223808 l -0.81061,1.318772 v 1.168048 c 0.80908,-1.091166 1.77543,-2.838184 1.78607,-2.858088 0.0379,-0.06837 0.11851,-0.100661 0.19372,-0.07726 0.003,4.85e-4 0.30009,0.09246 0.68221,0.09246 0.16259,0 0.31757,-0.01648 0.46115,-0.04877 0.0122,-0.0029 0.0243,-0.0039 0.0365,-0.0039 m -0.24159,8.211425 c -0.59484,0 -1.3348,-0.533692 -1.48295,-3.076806 -0.13143,-2.265819 0.76807,-3.716171 1.3067,-4.582541 0.0379,-0.06176 0.0745,-0.120947 0.10864,-0.17663 -0.33047,0.02429 -0.66854,-0.02788 -0.83796,-0.06648 -0.26361,0.469422 -1.28618,2.261339 -2.0512,3.168578 -0.0456,0.05288 -0.11775,0.07217 -0.18309,0.04839 -0.0646,-0.02371 -0.10788,-0.08539 -0.10788,-0.154452 v -1.663751 c 0,-0.03069 0.008,-0.08676 0.0243,-0.112665 l 0.76047,-1.236727 c -0.30236,-0.285266 -0.99141,-1.194634 -0.33503,-3.167967 0.46342,-1.395352 1.25579,-2.447545 1.84305,-2.447545 0.13902,0 0.26209,0.05698 0.35477,0.16463 0.20361,0.234824 0.26286,0.714729 0.17702,1.428246 0.49988,0.05128 1.83241,0.22601 2.17124,0.654256 0.41099,0.520096 0.75286,2.490923 0.46494,3.204667 -0.0988,0.242802 -0.2735,0.499887 -0.47633,0.797387 -0.37302,0.547292 -0.8372,1.228216 -1.0127,2.126568 -0.0699,0.361158 -0.20056,1.033195 -0.0357,1.233909 0.0266,0.0319 0.0775,0.07468 0.21196,0.07468 0.2621,0 0.70652,-0.163945 1.31961,-0.488109 0.063,-0.0336 0.14054,-0.02216 0.1922,0.02788 0.0379,0.03728 0.0555,0.08987 0.0478,0.140847 -0.0259,0.312695 -0.022,0.906559 0.0661,1.646968 0.004,0.03889 -0.005,0.07817 -0.0274,0.111143 -0.51357,0.765021 -1.24668,1.754844 -1.8233,2.122995 -0.23094,0.147838 -0.45886,0.222519 -0.67537,0.222519 z"
         style="fill:#b4975a;fill-opacity:1;fill-rule:nonzero;stroke:none;stroke-width:0.0759703" />
      <path
         id="path35"
         d="m 137.84304,28.22947 c 0,0 -1.07954,1.911647 -1.64628,2.306694 0.56674,0.173439 1.06359,2.282232 1.11068,2.574718 0.58346,-0.347262 0.95343,-0.95594 0.5356,-4.881412 m 0.0319,-2.361694 c 0,0 -0.55915,0.868876 -1.17375,1.87199 -0.6146,1.003114 -1.57563,2.49882 -1.57563,2.49882 -0.0638,0.739725 0.0387,2.919775 0.92912,5.052346 0.89037,2.132566 1.82026,2.322491 2.39535,2.124968 0.5751,-0.197524 0.94507,-0.99521 0.79541,-2.748842 -0.37834,0.363371 -1.18893,0.355467 -1.46471,-0.268475 0.78706,-0.260503 1.38798,-0.892959 1.34088,-2.867587 -0.0471,-1.974546 -0.0319,-4.549342 -0.12611,-5.544857 -0.095,-0.995215 -0.75667,-2.938467 -1.12056,-0.118363"
         style="fill:#b4975a;fill-opacity:1;fill-rule:evenodd;stroke:none;stroke-width:0.0759703" />
      <path
         id="path36"
         d="m 136.40567,30.531073 c 0.47862,0.450429 0.81897,1.753626 0.94584,2.309807 0.3677,-0.345057 0.59561,-1.144949 0.31452,-4.080603 -0.31225,0.51979 -0.84859,1.36466 -1.26036,1.770796 m 0.83796,2.757045 c -0.0236,0 -0.0471,-0.005 -0.0691,-0.01552 -0.0501,-0.02308 -0.0843,-0.06898 -0.0934,-0.122843 -0.0881,-0.542507 -0.59485,-2.320824 -0.99598,-2.443671 -0.0608,-0.01837 -0.10484,-0.06966 -0.11471,-0.132037 -0.01,-0.06229 0.0167,-0.12436 0.0691,-0.16045 0.4391,-0.306387 1.30138,-1.729921 1.5969,-2.252524 0.035,-0.06237 0.10712,-0.09405 0.17625,-0.08007 0.0707,0.0145 0.12308,0.07247 0.13067,0.143659 0.43456,4.080302 0.019,4.66269 -0.61536,5.04034 -0.0258,0.01552 -0.0547,0.02308 -0.0843,0.02308 m -2.02081,-2.982755 c -0.0456,0.650159 0.0289,2.799822 0.92076,4.934894 0.71869,1.722023 1.42293,2.083492 1.88863,2.083492 0.10027,0 0.20208,-0.01707 0.30084,-0.05097 0.52951,-0.181949 0.77718,-0.993619 0.705,-2.297122 -0.15193,0.07278 -0.32591,0.112059 -0.50519,0.112059 -0.43608,0 -0.7977,-0.227915 -0.96635,-0.609967 -0.019,-0.04248 -0.019,-0.09086 0,-0.133254 0.019,-0.04248 0.0547,-0.07506 0.0988,-0.08965 0.63359,-0.20983 1.27555,-0.695432 1.22768,-2.707361 -0.0159,-0.69642 -0.0251,-1.467822 -0.0342,-2.218335 -0.016,-1.376666 -0.0304,-2.677052 -0.0912,-3.314821 -0.0615,-0.647042 -0.31983,-1.379551 -0.4619,-1.435239 0.008,0.0057 -0.17701,0.129151 -0.33123,1.322495 -0.003,0.0241 -0.0114,0.04747 -0.0251,0.06777 -0.005,0.0089 -0.56523,0.87936 -1.17147,1.869178 -0.55686,0.908456 -1.40697,2.235432 -1.55511,2.466838 m 2.80939,7.347946 c -0.56523,0 -1.40394,-0.396642 -2.19327,-2.286407 -0.94051,-2.252829 -0.9975,-4.466763 -0.94128,-5.129605 0.002,-0.02691 0.0114,-0.05258 0.0259,-0.07506 0.01,-0.01484 0.9671,-1.505735 1.57335,-2.495558 0.54395,-0.887941 1.04992,-1.67963 1.15551,-1.844259 0.14511,-1.101194 0.34415,-1.5716 0.66247,-1.5716 0.57965,0 0.7787,1.715031 0.78098,1.732428 0.0615,0.651448 0.0767,1.958447 0.0927,3.342095 0.008,0.749224 0.0175,1.519108 0.0334,2.214544 0.0395,1.63876 -0.35251,2.561802 -1.26491,2.956165 0.18157,0.233607 0.45355,0.262099 0.57586,0.262099 0.20663,0 0.40643,-0.07339 0.53483,-0.197146 0.0463,-0.04407 0.1132,-0.05797 0.17245,-0.03549 0.0593,0.0225 0.10028,0.07688 0.10636,0.14024 0.17853,2.093597 -0.39505,2.742539 -0.90633,2.918485 -0.13371,0.04558 -0.27122,0.06906 -0.40796,0.06906"
         style="fill:#b4975a;fill-opacity:1;fill-rule:nonzero;stroke:none;stroke-width:0.0759703" />
    </g>
    <path
       id="path37"
       d="m 63.209527,49.06912 c -0.508088,0.03132 -0.866745,-0.0747 -1.177849,-0.252605 -0.311477,-0.17789 -0.508088,-0.166496 -1.295975,-0.446652 -0.788196,-0.280102 -0.673554,-0.0434 -1.808099,-0.817595 -1.13447,-0.773986 -1.686242,-1.042393 -2.008741,-1.382358 0.200642,0.02788 0.472236,0.02749 0.641577,0.225025 0.169411,0.197523 0.488483,0.407125 0.796166,0.533692 0.307304,0.126033 0.417456,0.307682 0.700451,0.517283 0.283978,0.209524 0.477093,0.521614 1.07217,0.564385 0.594776,0.0434 1.161744,0.466609 1.52412,0.470411 0.362457,0.0034 0.88665,0.469707 1.567576,0.378862 0.681834,-0.09085 1.370964,0.02754 1.469726,0.193406 -0.760387,0.07122 -0.973407,-0.01552 -1.481122,0.01615 m -5.345814,-3.586443 c -0.102562,0.371346 -0.850261,0.7825 -1.820104,0.481805 -0.968624,-0.300084 -1.788195,-0.750586 -1.788195,-0.750586 -0.242422,-0.04553 -0.376963,-0.111376 -0.455137,-0.170933 0.07407,-0.103172 0.105064,-0.207628 0.08858,-0.311406 -0.02024,-0.125427 -0.104155,-0.221302 -0.211122,-0.30388 0.125658,-0.03006 0.260504,-0.09436 0.31019,-0.23209 0.102258,-0.28451 0.04749,-0.300691 0.448904,-0.205427 0.401961,0.09436 1.559906,0.37104 1.646663,0.221 0.08668,-0.150422 0.22852,-0.228899 0.22852,-0.228899 0,0 -0.283897,0.726507 -0.134236,0.821092 0.449209,-0.331688 1.457722,-0.205427 1.583375,-0.213025 -0.117759,-0.434244 -0.519789,-0.639749 -0.905646,-0.521308 -0.244319,-0.30039 0.2365,-0.513788 0.2365,-0.513788 0.03162,-0.418447 0.362452,-0.536809 0.598566,-0.378866 -0.07088,0.315886 -0.220614,0.395046 -0.220614,0.395046 0.149736,0.205422 0.409556,0.513104 0.637846,0.545092 0.228824,0.03161 0.583681,0.213019 0.504523,0.307677 -0.504523,0.142446 -0.834686,0.292486 -0.89805,0.339664 -0.331077,0.49753 -0.393757,0.750819 -0.393757,0.750819 0.433341,-0.09527 0.543194,-0.032 0.543194,-0.032 m -4.647801,5.406886 c 0.149432,-0.612193 0.21621,-1.59949 0.21621,-1.59949 0.311478,0.300079 0.07118,1.406083 -0.21621,1.59949 M 53.05037,49.037453 c -0.496388,0.197523 -1.268706,0.702729 -1.496921,0.702729 -0.22829,0 -0.661631,-0.276345 -0.90595,-0.07091 -0.244095,0.205121 -0.591051,0.299774 -0.764487,0.220952 -0.173142,-0.07851 -0.417231,-0.05096 -0.567278,0.09907 -0.149357,0.150045 -0.338672,-0.01237 -0.515608,-0.07945 -0.177242,-0.0671 -0.500114,0.02027 -0.669531,0.169987 -0.16964,0.15036 -0.472919,0.08325 -0.63435,0.03166 -0.161746,-0.0516 -0.37446,0.0079 -0.578898,-0.189615 -0.205122,-0.197203 -0.61855,-0.394727 -0.429614,-0.663473 0,0 0.449518,0.640049 0.669835,0.604284 0.220618,-0.03545 0.43303,0.01964 0.614445,0.07913 0.181347,0.05919 0.330778,-0.03195 0.602677,-0.181692 0.271594,-0.15036 0.551393,0.157948 0.744203,0.01552 0.193426,-0.141806 0.331083,-0.181381 0.614682,-0.06679 0.283369,0.114266 0.43303,0.08673 0.681225,-0.138645 0.2482,-0.224754 0.44162,-0.347258 0.709034,-0.217156 0.268179,0.130417 0.469119,0.197523 0.63815,0.07122 0.169722,-0.1263 0.264,-0.300084 0.555878,-0.402955 0.291193,-0.102561 0.47231,-0.268437 0.622351,-0.371308 0.149058,-0.102235 0.913545,-0.134217 1.12626,-0.402315 0.21272,-0.26909 1.047712,-1.469422 1.047712,-1.469422 0,0 -0.251915,0.726808 -0.772013,1.492818 -0.519789,0.766368 -0.795482,0.568845 -1.291802,0.766368 m -0.846766,2.156296 c 0.149737,-0.612193 0.216516,-1.599499 0.216516,-1.599499 0.310868,0.300084 0.07119,1.406093 -0.216516,1.599499 m -1.678336,0.49001 c 0.149432,-0.612193 0.2159,-1.59918 0.2159,-1.59918 0.311788,0.300084 0.07157,1.406084 -0.2159,1.59918 m -4.431898,3.609547 c 1.816916,-1.617222 2.375978,-3.650699 2.375978,-3.650699 -0.229199,2.004361 -1.85497,3.418042 -2.375978,3.650699 m 1.137356,-4.292963 c -0.154219,0.372257 -0.491605,0.587182 -0.827167,0.647647 -0.299095,1.912869 -1.846994,3.2528 -2.353189,3.47913 1.495708,-1.331383 2.13918,-2.944803 2.31999,-3.473748 -0.548583,0.08262 -1.075666,-0.248804 -0.769201,-0.983821 0.02342,0.872711 0.821393,1.0332 1.633669,0.226015 0.0088,-0.09591 0.03287,-0.202591 0.07498,-0.321297 0.02027,0.839792 0.675839,0.968944 1.364963,0.208917 0.04812,-0.145923 0.158246,-0.306726 0.348854,-0.474173 -0.449209,0.766034 0.0395,1.176902 1.055612,0.727099 -0.569089,0.626123 -1.370884,0.447903 -1.429763,-0.02628 -0.412137,0.684042 -1.400746,0.712853 -1.418749,-0.0095 m -2.026892,-0.4897 c -0.07878,0.20101 -0.799893,0.366881 -1.276612,0.1263 -0.291192,0.06331 -0.527995,-0.577054 -0.527995,-0.577054 0,0 -0.0114,0.118702 -0.125956,-0.02313 -0.181037,-0.07913 0.346957,-0.699242 0.520397,-0.762557 0,0 0.106357,0.248803 0.15323,0.793895 0.02749,0.308317 0.240527,0.458042 1.256936,0.442526 M 45.010791,49.54675 c 0.10256,-0.197208 0.362453,-0.65556 0.362453,-0.65556 0.01552,0.497607 0.02308,0.762557 -0.362453,0.65556 m -5.204285,-0.359913 c 2.584216,-0.01867 4.178377,-0.831899 4.178377,-0.831899 -1.260805,0.862606 -2.841675,0.984479 -4.178377,0.831899 m 2.722555,0.223484 c -1.144648,1.011036 -2.698544,1.326636 -4.043528,1.339932 2.562106,-0.336174 4.043528,-1.339932 4.043528,-1.339932 m -0.651143,0.985716 c -0.911645,1.225026 -2.36739,1.854001 -3.681075,2.144586 2.438353,-0.857515 3.681075,-2.144586 3.681075,-2.144586 m 1.788805,0.529265 c -0.921146,1.532383 -2.543725,2.432636 -4.041027,2.922325 2.741626,-1.279783 4.041027,-2.922325 4.041027,-2.922325 m 1.237405,0.189286 c -0.449823,1.967005 -2.222515,3.191081 -2.766011,3.365185 1.985416,-1.405773 2.766011,-3.365185 2.766011,-3.365185 m 1.197752,-4.027981 c 0,0 0.890448,-0.103239 1.205122,0.236425 1.859375,-0.213325 6.176704,-1.911269 6.176704,-1.911269 -0.28299,0.268708 -2.111678,1.224343 -3.364579,1.619084 -1.252533,0.395352 -3.26894,0.726812 -4.584444,0.892654 0,0 0.496012,-0.315886 1.410166,-0.608372 0,0 -0.110159,-0.07126 -0.842969,-0.228522 m 7.263464,-3.728632 c 0.323183,-0.06708 0.941354,-0.15004 1.292105,0.05926 0.350758,0.209218 1.020213,0.43455 1.020213,0.43455 0,0 -0.310874,0.106357 -0.594771,0 -0.283599,-0.106663 -0.583078,-0.185445 -0.94523,-0.134165 -0.169641,-0.130441 -0.480819,-0.102866 -0.752413,-0.03166 -0.272204,0.07126 -0.122157,0.240595 0.01581,0.410543 0.07566,0.09375 0.04939,0.138951 -0.0253,0.145027 -0.0011,-4.86e-4 -0.0017,-9.78e-4 -0.0029,-0.0014 -0.140929,-0.07628 -0.243486,-0.158321 -0.326369,-0.245002 -0.17762,-0.490999 0.02909,-0.576768 0.318774,-0.636941 m 3.545235,-0.09496 c 0.06678,0.213403 -0.413351,0.197906 -0.626066,0.162123 -0.2131,-0.03515 -0.370741,-0.01168 -0.551777,0.0434 -0.145942,0.04461 -0.353569,-0.192815 -0.429541,-0.288083 0.0142,-2.87e-4 0.02938,-0.0014 0.04398,-0.002 0.110456,0.05189 0.318164,0.137356 0.453009,0.11236 0.09527,-0.01809 0.173441,-0.09436 0.271899,-0.16493 0.231406,-0.02468 0.472914,-0.06078 0.71982,-0.104767 0.04301,0.06648 0.08957,0.149133 0.118667,0.241817 m 7.011467,0.789788 c 0.606472,-0.134165 0.291884,-0.220924 0.409941,-0.473524 0.118362,-0.252905 0.472609,-0.363365 0.614676,-0.489704 0.141532,-0.126266 0.306769,-0.836971 0.353948,-0.836971 0.04778,0 0.110457,-0.07908 0.157941,-0.387066 0.04749,-0.308366 -0.188637,-0.252983 -0.354857,-0.347568 -0.03927,-0.118741 0.307373,-0.490009 0.465015,-0.59257 0.157641,-0.102939 0.284277,-0.165919 0.44124,-0.4581 0.157636,-0.292108 0.41753,-0.521313 0.528292,-0.560893 0.110158,-0.03957 0.164937,-0.2526 0.204516,-0.481805 0.03956,-0.229128 0.212715,-0.228823 0.212715,-0.228823 0,0 -0.06297,-0.158321 -0.06297,-0.300384 0,-0.142141 0.85907,-0.703035 0.85907,-0.703035 0,0 0.02305,-0.150039 0.09405,-0.434321 0.165852,-0.157943 0.150047,-0.450429 -0.22031,-0.528984 -0.07058,-0.395046 0.425131,-0.56499 0.673555,-0.691329 0.248194,-0.126266 0.244095,-0.28451 0.303273,-0.486213 0.05888,-0.20132 -0.118362,-0.260198 -0.374456,-0.307682 0.49191,-0.181644 0.602671,-0.0079 0.579576,0.315963 -0.02409,0.324091 -0.260199,0.687228 -0.709713,0.900248 0,0 0.01587,0.126567 0.118742,0.245007 l -0.09466,0.102561 c 0.110158,0.118663 0.07058,0.766315 0.07058,0.766315 0,0 0.354856,-0.0079 0.914229,0.04747 -0.181116,0.197523 -0.90595,0.14184 -1.394439,0.292186 -0.414345,0.12725 -0.488109,0.412744 -0.501028,0.612168 0.331083,0.04248 1.400062,0.17762 1.532711,0.17762 -0.642336,0.28048 -1.311786,0.321583 -1.550183,0.104156 -0.02397,0.135454 -0.08638,0.271898 -0.238018,0.385547 -0.22062,0.166148 -0.370351,0.718837 -0.346572,0.979719 0.0234,0.260504 -0.85915,0.450124 -1.040191,0.702724 0.102258,0.01581 0.370356,0.126572 0.338677,0.505511 0,0 0.165921,0.07118 0.709408,0.371569 -0.291573,0.213097 -0.937623,-0.06359 -0.937623,-0.06359 0,0 -0.165541,0.74231 -0.370357,0.955635 -0.20512,0.213326 -0.448835,0.545392 -0.976828,0.971815 -0.527998,0.426346 -1.717622,0.189242 -1.717622,0.189242 0,0 0.70121,-0.118058 1.307681,-0.252906 m -0.527383,-4.3835 c 0,0 0.740409,-0.916049 0.992397,-1.508619 0.252305,-0.59227 0.417536,-0.829068 0.898355,-1.239612 0,0 -0.323177,0.584061 -0.64605,1.200332 -0.323257,0.61597 -0.228295,1.066477 -1.244702,1.547899 m 11.864694,-4.974169 c -0.10446,0.196612 -0.313685,0.372258 -0.594162,0.524882 -0.483935,0.204438 -1.013526,0.389272 -1.55641,0.521614 -0.01299,0.0034 -0.02121,0.01391 -0.0326,0.01969 -0.747095,0.164552 -1.484922,0.23961 -1.866674,0.219327 0.511205,-0.322877 1.444734,-0.644761 2.292719,-0.896455 0.498896,-0.08227 1.097467,-0.206411 1.75712,-0.389044 m -3.458563,3.718455 c 1.213633,-0.03166 2.213631,-0.205427 2.213631,-0.205427 -0.157636,0.387149 -1.788494,0.418753 -2.213631,0.205427 m 0.567583,-0.766014 c 1.212713,-0.032 2.213625,-0.205423 2.213625,-0.205423 -0.158021,0.387071 -1.7885,0.418448 -2.213625,0.205423 m -0.812281,-0.711006 c 0.299478,0.466309 0.354557,1.137356 0,1.698322 -0.06488,0.03607 -0.117069,0.736534 -0.447542,1.035095 0.400742,0.08767 1.597586,0.03098 1.597586,0.03098 -0.756213,0.347563 -1.551396,0.276305 -1.551396,0.276305 0,0 -0.535892,0.537188 -1.032212,0.624247 0,0 0.393757,0.213326 1.630784,0.300085 -0.441235,0.220923 -1.362679,0.228822 -1.961941,-0.276307 0,0 0.67743,-0.489398 1.266504,-0.967712 0.103552,-0.198814 0.355466,-0.722022 0.380159,-1.196535 0.44131,-0.458027 0.220316,-1.003419 -0.118057,-1.714046 0.404237,0.0417 1.652361,-0.02187 2.241739,-0.05546 0.0011,2.86e-4 0.0011,0.0014 0.0017,0.002 0.02978,0.01648 0.06017,0.0288 0.08995,0.04465 -0.324166,0.08326 -1.008203,0.214921 -2.097471,0.198436 m -0.527993,-2.124896 c 1.686242,-0.584671 2.88407,-1.129457 2.88407,-1.129457 -0.827471,0.718531 -1.773,1.011017 -2.88407,1.129457 m -0.22062,2.330012 c 0.205126,0.118441 0.323557,0.876852 0.434025,1.074375 0.110457,0.197524 -0.04749,0.276384 -0.141837,0.276384 -0.09466,0 -0.283598,0.157943 -0.283598,0.157943 L 70.02759,37.007719 c 0,0 0.574793,0.01581 0.779608,0.13416 m 2.588696,-4.710475 c -0.66884,0.502393 -1.397549,0.969235 -2.081591,1.297884 -0.36367,0.140541 -0.696345,0.231023 -0.939831,0.253206 0.709109,-0.360252 1.821088,-1.15984 2.599482,-1.742916 0.298185,-0.169032 0.584366,-0.329176 0.849963,-0.472612 -0.06967,0.225103 -0.222903,0.449517 -0.428023,0.664438 m -8.871455,14.552155 c -0.523888,-0.327285 -1.169639,-0.884373 -1.007823,-1.536204 0,-2.81e-4 0.314898,0.865152 0.913545,1.212414 0.598876,0.347869 1.138264,0.636253 1.028112,1.137662 C 65.2731,47.55618 65.04838,47.311483 64.524487,46.983519 m 4.955864,-13.290055 c -0.14343,0.0487 -0.253898,0.07027 -0.311478,0.05979 0.524198,-0.348479 1.708952,-1.520325 2.326595,-2.143587 0.125957,-0.09534 0.249712,-0.190304 0.372558,-0.285572 -0.0165,0.107346 -0.04209,0.211803 -0.07787,0.314063 -0.669829,0.751119 -1.493506,1.553519 -2.309806,2.055306 m -0.517713,-0.978137 c -0.285876,0.405757 -0.696725,0.975233 -0.951226,1.401355 0.256094,0.09838 0.949018,0.04747 1.165844,-0.260887 -0.02375,0.284587 -0.271899,0.347874 -0.847077,0.446633 -0.575476,0.09846 -0.618246,-0.122465 -2.013213,0.936031 -1.394365,1.058195 -1.489022,1.232018 -2.544409,3.112284 -1.055986,1.879665 -1.756816,2.235132 -1.756816,2.235132 -0.779918,0.963533 -1.937856,1.801106 -2.772922,1.935348 1.937931,-0.821775 3.269621,-2.598875 3.922657,-3.807415 0.654565,-1.208841 1.103475,-2.258832 2.056524,-3.111907 0.953129,-0.853146 1.705921,-1.173134 2.241515,-1.354856 0.535892,-0.181721 0.713133,-0.79389 0.713133,-0.79389 0.255485,-0.457038 0.592265,-1.149662 0.847675,-1.690651 0.258986,-0.354555 0.510296,-0.711311 0.724609,-1.0215 -0.208006,0.62896 -0.493508,1.405458 -0.786294,1.974323 M 51.276393,44.592025 c -0.04559,-0.170932 0.0017,-0.347257 0.138951,-0.524498 0.103172,-0.132948 0.25131,-0.223508 0.409636,-0.285877 -0.01937,0.04369 -0.03082,0.08615 -0.02374,0.126339 0.01771,0.104461 0.119346,0.180125 0.310184,0.230116 0.152324,0.03927 0.293476,0.06928 0.417841,0.09276 -0.0399,0.09337 -0.0699,0.195322 -0.07278,0.286788 -0.216217,-0.135149 -0.479526,-0.12725 -0.666645,0.02977 -0.112055,0.09398 -0.201624,0.248726 -0.204131,0.449745 -0.161436,-0.117068 -0.270076,-0.256702 -0.309275,-0.405152 m 11.820331,9.144635 C 62.93342,53.497028 62.739086,53.143769 62.520972,52.623367 61.951883,51.265398 62.003162,50.74183 62.079737,49.94857 l 0.0052,-0.05666 c 4.83e-4,-4.85e-4 4.83e-4,-0.0014 4.83e-4,-0.0024 0.0023,-0.02531 0.004,-0.0497 0.0057,-0.07344 0.056,0.0823 0.141843,0.234242 0.261797,0.511533 0.44534,1.026872 0.809085,2.881818 0.74383,3.409178 m 0.586567,-3.721607 c 0.03392,0.146883 0.828759,3.50288 2.220921,4.470864 -0.05956,0.06362 -0.166835,0.07312 -0.320676,0.02565 -0.620449,-0.187389 -1.442216,-1.907172 -1.711539,-2.565583 -0.357438,-1.269028 -0.392837,-2.170542 -0.393148,-2.179725 -0.0034,-0.09053 -0.06146,-0.159218 -0.170623,-0.158588 -0.09086,0.0034 -0.161747,0.07946 -0.158625,0.169983 0.0017,0.03865 0.03674,0.950902 0.407727,2.264873 2.88e-4,0.0014 2.88e-4,0.0024 0.0012,0.0034 0.362756,1.28485 0.42992,2.01512 0.199118,2.170857 -0.04341,0.0288 -0.08858,0.03481 -0.144648,0.01775 -0.04588,-0.01391 -0.141153,-0.05761 -0.276683,-0.197519 0.324465,-0.521981 -0.314593,-2.995769 -0.680845,-3.839994 -0.246906,-0.570416 -0.417536,-0.798637 -0.607156,-0.799907 -0.03231,-0.108258 -0.08137,-0.184548 -0.133253,-0.248484 0.03547,-0.06522 0.09435,-0.07946 0.30578,0.0076 0.346957,0.141806 0.346957,0.25228 0.944919,0.284248 0.468734,0.02468 0.875559,0.05952 1.11548,0.111109 -0.0017,0.01518 -0.004,0.0304 -4.89e-4,0.04592 0.274101,1.446919 0.816002,2.438657 1.25063,3.234768 l 0.132035,0.241837 c 0.05318,0.12725 0.107271,0.245322 0.162649,0.35453 0.09846,0.256402 0.155135,0.509002 0.161442,0.708737 -1.224723,-0.990149 -1.975234,-4.163498 -1.982834,-4.197051 -0.02024,-0.08864 -0.109853,-0.142447 -0.19752,-0.123134 -0.08896,0.02056 -0.144044,0.109208 -0.123456,0.197833 m 8.825881,0.779965 c -0.06997,0.153526 -0.331083,0.272228 -0.595692,0.193407 -0.575856,-0.168712 -1.442221,-0.72963 -1.451035,-0.735012 -0.0017,-0.0014 -0.0023,-0.002 -0.0046,-0.0029 -0.680241,-0.455506 -1.437058,-0.872712 -1.485531,-0.898982 -0.07878,-0.04306 -0.179438,-0.01518 -0.223806,0.06457 -0.0437,0.08009 -0.01449,0.180112 0.06496,0.223794 0.01863,0.0098 1.808703,0.997111 2.328497,1.56278 0.152852,0.167137 0.249108,0.359274 0.273112,0.530846 -0.927142,-0.468165 -2.832717,-1.82773 -2.853909,-1.842921 -0.07315,-0.05286 -0.176022,-0.03544 -0.229503,0.03865 -0.05289,0.07407 -0.03547,0.176314 0.03858,0.229811 0.08767,0.06267 2.046497,1.460215 2.974927,1.907172 -0.09025,0.114595 -0.260199,0.162704 -0.482791,0.141186 -0.624174,-0.06648 -2.067005,-1.140828 -2.595302,-1.569113 -0.243411,-0.236139 -0.514401,-0.471017 -0.812276,-0.697027 -0.07218,-0.05571 -0.175953,-0.04116 -0.230423,0.03132 -0.05537,0.07249 -0.04088,0.176 0.03099,0.230756 1.344069,1.021176 2.181642,2.30539 2.203144,2.932144 -0.922054,-0.859726 -1.988227,-2.337993 -1.999242,-2.353814 -0.05353,-0.07503 -0.157332,-0.09022 -0.230188,-0.03768 -0.07369,0.05286 -0.09048,0.155742 -0.03731,0.229491 0.04812,0.06743 1.135453,1.575761 2.091997,2.448472 -0.420042,0.09939 -1.321583,-0.603965 -1.905873,-1.374755 -0.216515,-0.398209 -0.508698,-0.877459 -0.891439,-1.464642 -0.04996,-0.07566 -0.15126,-0.09813 -0.228215,-0.04781 -0.07567,0.0497 -0.09747,0.151625 -0.04783,0.228231 0.681535,1.045225 1.079391,1.759028 1.251923,2.246191 0.172527,0.486533 -0.0029,0.883796 -0.266506,1.025292 -0.01006,0.0054 -0.02087,0.01014 -0.03139,0.01488 0.03674,-0.253555 -0.105375,-0.652079 -0.439332,-1.245919 -0.39156,-0.695446 -1.245617,-2.400988 -1.254126,-2.41808 -0.04059,-0.08167 -0.141227,-0.114905 -0.22062,-0.07312 -0.08166,0.04019 -0.114636,0.138966 -0.07346,0.220318 0.0079,0.01741 0.866061,1.730226 1.261715,2.432645 0.504898,0.898351 0.393153,1.062947 0.391555,1.064533 -0.0023,0.0034 -0.02656,0.01168 -0.08288,0.0076 -0.125049,-0.05856 -0.248505,-0.164925 -0.360864,-0.314965 -0.08706,-0.116486 -0.174729,-0.260198 -0.260199,-0.429235 -0.04967,-0.1263 -0.106663,-0.25038 -0.169716,-0.366866 -2.87e-4,-0.0014 -0.0017,-0.0029 -0.0023,-0.0044 l -0.134845,-0.247533 c -0.385552,-0.706845 -0.855275,-1.57417 -1.136672,-2.777042 0.13135,-0.187705 0.33359,-0.447278 0.534604,-0.560283 l 1.33138,0.834727 c 0.02725,0.01707 0.05726,0.02531 0.08737,0.02531 0.05479,0 0.108255,-0.02725 0.139635,-0.07756 0.04812,-0.07692 0.02501,-0.178211 -0.05226,-0.22664 l -1.033499,-0.648283 c 0.101643,-0.0095 0.212715,-0.0209 0.325759,-0.03389 l 0.903362,0.56598 c 0.02725,0.01707 0.05726,0.02468 0.08707,0.02468 0.05479,0 0.108864,-0.02691 0.139939,-0.07692 0.04841,-0.0766 0.02466,-0.178212 -0.05261,-0.22696 l -0.586568,-0.367822 c 0.128539,-0.03069 0.236196,-0.06932 0.306091,-0.117441 l 1.043377,0.654294 c 0.02719,0.01678 0.05726,0.02468 0.08736,0.02468 0.05439,0 0.108565,-0.02691 0.139256,-0.07724 0.04875,-0.07661 0.0253,-0.178216 -0.05221,-0.22696 l -1.324164,-0.829955 c -0.08767,-0.122543 -0.17815,-0.240901 -0.257922,-0.340955 l 1.608298,1.00852 c 0.02696,0.01678 0.05738,0.02468 0.08737,0.02468 0.05479,0 0.10864,-0.02725 0.139635,-0.07724 0.04841,-0.0766 0.02466,-0.178211 -0.05226,-0.226966 l -1.658357,-1.039803 0.404231,-0.03991 c 0.275395,0.124366 0.622053,0.2526 1.044596,0.407353 0.227002,0.08326 0.478313,0.17663 0.740714,0.276 -0.01771,0.01586 -0.03576,0.03103 -0.04875,0.05131 -0.141153,0.220952 0.115855,0.462158 0.199802,0.54161 0.515913,0.485257 2.931473,1.67578 3.034036,1.72643 0.0234,0.0114 0.04847,0.01648 0.07247,0.01648 0.06078,0 0.119351,-0.03355 0.148144,-0.09212 0.0399,-0.08104 0.0064,-0.179797 -0.07566,-0.220313 -0.02466,-0.01202 -2.473151,-1.218698 -2.95366,-1.670092 -0.056,-0.05349 -0.08987,-0.09274 -0.10887,-0.120283 0.08487,-0.0066 0.237408,0.0085 0.354557,0.05539 0.03703,0.01488 0.07559,0.01329 0.111072,0.0014 0.349464,0.143071 0.71602,0.299133 1.113577,0.484942 l 1.669143,1.068974 c 0.09596,0.06141 0.311173,0.223794 0.229814,0.402325 m 1.16873,-3.040416 c 0.0066,0.05196 -0.0095,0.06526 -0.01966,0.07407 -0.110761,0.09405 -0.545689,0.09876 -1.242724,-0.109853 -0.22092,-0.06648 -0.626451,-0.183239 -1.11836,-0.324396 -0.0035,-0.0014 -0.0066,-0.0024 -0.0098,-0.0029 -0.121249,-0.03481 -0.24789,-0.07119 -0.377647,-0.108257 -1.174049,-0.337085 -2.635571,-0.756211 -3.337614,-0.977818 -0.08676,-0.0272 -0.179823,0.02061 -0.206713,0.107346 -0.02719,0.08706 0.02087,0.179443 0.107266,0.207018 0.706907,0.222212 2.170252,0.64256 3.345899,0.979335 0.01391,0.0044 0.0276,0.008 0.04048,0.01207 -0.03289,0.189925 0.170021,0.328192 0.484689,0.476714 l 0.188935,0.08797 c 0.445725,0.20611 1.347185,0.621692 1.455831,0.95818 -1.134849,-0.46405 -5.165083,-2.049269 -5.208767,-2.066361 -0.08448,-0.0336 -0.180128,0.0079 -0.213025,0.09268 -0.03358,0.08456 0.0082,0.180431 0.09276,0.213403 0.04341,0.01741 4.086531,1.607703 5.208083,2.066055 -0.133253,0.08325 -0.653346,0.273174 -2.107579,-0.409922 -1.040789,-0.486873 -1.918246,-0.807845 -2.62379,-1.066148 -0.361543,-0.132569 -0.666639,-0.244624 -0.91324,-0.350375 -0.0276,-0.08645 -0.125957,-0.363748 -0.125957,-0.495706 0,-0.141841 0.213019,-0.134243 0.236419,-0.181422 0.02374,-0.04747 -0.03927,-0.245002 -0.188636,-0.410848 -0.09025,-0.09967 -0.291573,-0.303275 -0.465319,-0.454226 0.0076,-0.06396 0.01679,-0.126945 0.02558,-0.183317 0.768592,0.397932 2.952143,0.695131 4.426273,0.857555 1.395957,0.258908 2.514323,0.754615 2.546606,1.009116 M 77.10171,33.971738 v -0.02468 c -0.0029,-0.03511 -0.01673,-0.06959 -0.04111,-0.09747 -0.04559,-0.05226 -0.11996,-0.06868 -0.184917,-0.04427 -1.443435,0.577073 -2.761827,0.856871 -3.665879,0.992325 1.589986,-0.776493 3.062294,-2.133177 3.502241,-2.802323 0.04686,-0.06997 0.03231,-0.163641 -0.03202,-0.2172 -0.0642,-0.05409 -0.158855,-0.05059 -0.219327,0.0079 -1.012916,0.97341 -2.83689,1.767 -4.677278,2.075972 1.635573,-0.871456 3.428471,-2.40925 4.058118,-3.27433 0.04749,-0.06526 0.04019,-0.155131 -0.01679,-0.212715 -0.0564,-0.05736 -0.147155,-0.06526 -0.212117,-0.01809 -0.0046,0.0034 -0.455442,0.321584 -1.825796,1.055383 -0.451038,0.240823 -0.975236,0.539695 -1.50961,0.844487 -0.479221,0.272887 -0.965433,0.549872 -1.411762,0.793284 1.431436,-1.292109 2.606399,-2.981843 2.669757,-3.073616 0.04651,-0.06746 0.03639,-0.158626 -0.02317,-0.214314 -0.0604,-0.05538 -0.152249,-0.05918 -0.215228,-0.0079 l -0.381752,0.31049 c -0.890443,0.727113 -2.45734,2.006916 -3.52533,2.534605 0.527004,-1.136745 0.980324,-2.74603 1.001217,-2.822305 0.02248,-0.07825 -0.0165,-0.160523 -0.08988,-0.194106 -0.01903,-0.0085 -0.03898,-0.01357 -0.05887,-0.01421 h -0.01932 c -0.05036,0.0029 -0.09815,0.02909 -0.12763,0.07346 -0.01518,0.02308 -1.539013,2.330094 -2.402877,3.27304 -0.271589,0.296893 -0.679632,0.566891 -1.152167,0.879359 -1.010404,0.667629 -2.267111,1.499125 -3.011924,3.145483 -1.207935,2.67135 -3.251844,4.66049 -5.606622,5.456581 -1.338986,0.45233 -2.528604,0.465019 -3.484849,0.475119 -0.903438,0.0095 -1.573572,0.01648 -1.847069,0.446327 -0.283294,0.002 -1.051507,0.05387 -1.434552,0.546992 -0.20163,0.258981 -0.270002,0.540073 -0.197221,0.811971 0.06458,0.243407 0.244705,0.46532 0.50741,0.635264 -0.899574,0.418825 -3.957378,1.638459 -8.496015,1.340882 -0.07658,-0.0014 -0.136744,0.03646 -0.163335,0.102255 -0.02657,0.06587 -0.0082,0.141229 0.04558,0.187113 0.319382,0.273499 1.042694,0.432348 1.486515,0.507712 -0.851173,0.636253 -3.32591,1.810629 -7.130818,0.866675 -0.07278,-0.01799 -0.146243,0.01459 -0.183244,0.07916 -0.03608,0.06396 -0.0257,0.144647 0.02691,0.196892 0.463419,0.46437 1.756512,1.044595 2.689357,1.128163 -9.77e-4,0.0014 -0.0024,0.0024 -0.0034,0.0034 -0.343155,0.350414 -1.718832,0.56661 -3.428165,0.318442 -0.06587,-0.0082 -0.131658,0.02216 -0.165542,0.08008 -0.03389,0.05793 -0.02948,0.130421 0.0114,0.183597 0.304491,0.395367 1.882472,1.090178 3.450353,0.88189 -0.01648,0.02754 -0.03768,0.05667 -0.06267,0.0861 -0.40553,0.473548 -1.647041,0.918605 -3.143282,0.817315 -0.06936,-0.0089 -0.127934,0.0304 -0.158016,0.08799 -0.03001,0.05857 -0.02279,0.129151 0.01901,0.180431 0.598645,0.732486 2.376661,0.736602 3.801412,0.328891 -0.136749,0.293437 -0.608372,0.860686 -2.222442,1.502946 -0.06716,0.02657 -0.108942,0.09338 -0.10355,0.165556 0.006,0.07185 0.05766,0.131998 0.127934,0.147824 1.249032,0.284257 2.638383,-0.02182 4.037454,-0.882836 -0.08448,0.351045 -0.421255,0.992994 -1.690646,1.658683 -0.06678,0.03481 -0.101271,0.11048 -0.08417,0.183598 0.01741,0.07313 0.08197,0.125035 0.157332,0.126621 1.330092,0.03453 2.410771,-0.446327 3.460152,-1.530492 0.07719,0.294706 0.05979,0.904048 -0.899947,1.714405 -0.06146,0.05128 -0.07665,0.13896 -0.03676,0.208282 0.04025,0.06901 0.123832,0.09813 0.199119,0.07217 0.08197,-0.02977 1.856871,-0.682151 2.918863,-1.683063 -0.07977,0.482412 -0.423534,1.004709 -0.986327,1.482058 -0.05607,0.04747 -0.07376,0.126935 -0.04276,0.194042 0.02691,0.05887 0.08577,0.09591 0.149433,0.09591 0.0085,0 0.01712,-4.85e-4 0.02599,-0.002 1.610879,-0.257667 2.832102,-0.912912 3.634811,-1.948963 0.09724,0.363399 -0.07787,0.819855 -0.08008,0.825552 -0.02719,0.06932 -0.0046,0.148459 0.05537,0.192457 0.05986,0.04403 0.141837,0.04272 0.200411,-0.0034 0.600475,-0.480196 1.162044,-1.167419 1.437737,-1.526061 0.131966,0.388084 0.154457,0.739133 0.155136,0.743565 0.0029,0.06109 0.04048,0.115221 0.09648,0.140545 0.05669,0.02531 0.121932,0.01678 0.169416,-0.02119 0.364659,-0.289 0.75492,-0.702409 0.974321,-0.945195 0.06488,0.164915 0.113959,0.312429 0.114562,0.31496 0.0184,0.0557 0.06549,0.09781 0.123456,0.109208 0.05726,0.01173 0.117144,-0.0082 0.156348,-0.05286 0.196307,-0.223483 0.355162,-0.46627 0.459921,-0.64259 0.09846,0.196263 0.186515,0.439049 0.221005,0.545726 0.02058,0.06426 0.07908,0.10952 0.146546,0.113956 0.06518,-3.4e-4 0.130441,-0.03355 0.159234,-0.09465 0.140238,-0.300714 0.258601,-0.557741 0.344071,-0.74292 0.100659,0.233608 0.132948,0.381112 0.133551,0.383013 0.01432,0.06711 0.06868,0.118702 0.136749,0.128835 0.06746,0.01042 0.134846,-0.02313 0.168123,-0.08294 l 0.288992,-0.521347 c 0.436221,0.120603 0.790399,0.03166 1.053478,-0.270013 0.46943,-0.05698 0.715342,-0.343766 0.815398,-0.498868 0.388358,-0.01518 0.656537,-0.184228 0.769805,-0.271592 0.264988,-0.0054 0.513107,-0.26495 0.753097,-0.5166 0.120265,-0.12599 0.244705,-0.256402 0.351062,-0.330477 0.262401,-0.184863 0.507709,-0.11649 0.517512,-0.112694 0.06366,0.0209 0.134242,-2.81e-4 0.176632,-0.05223 0.305475,-0.372258 0.641341,-0.532747 0.964823,-0.687849 l 0.122841,-0.05887 c 0.175045,-0.08611 0.426355,-0.277615 0.692246,-0.479565 0.28269,-0.215566 0.603361,-0.460263 0.763808,-0.51597 0.132339,-0.04591 0.333055,-0.06426 0.465014,0.03894 0.125354,0.09813 0.154146,0.283938 0.15103,0.451704 -0.0046,0.03452 -0.0067,0.07154 -0.0072,0.111109 l -0.0046,0.05096 c -0.07878,0.812247 -0.135759,1.39944 0.46471,2.833064 0.189016,0.451394 0.440625,0.966724 0.726507,1.334549 0.0066,0.01076 0.01449,0.02153 0.02369,0.03006 0.173815,0.217151 0.359945,0.37827 0.551393,0.435568 0.152927,0.04621 0.298564,0.02405 0.423532,-0.06046 0.245693,-0.165866 0.330169,-0.507416 0.250097,-1.122465 0.363745,0.649237 0.836964,1.320623 1.295602,1.459584 0.373846,0.112054 0.574263,-0.01363 0.678034,-0.139906 0.04439,-0.05508 0.07855,-0.119972 0.102258,-0.193727 0.006,-0.01329 0.01006,-0.02754 0.01236,-0.0418 0.02587,-0.09496 0.03605,-0.20259 0.03381,-0.317491 0.0491,0.04655 0.09914,0.08641 0.149133,0.120283 0.02087,0.04053 0.05857,0.07281 0.106053,0.08452 0.02938,0.0073 0.05759,0.01363 0.08517,0.01837 0.257612,0.104462 0.507709,0.06933 0.697633,-0.03292 0.366252,-0.196258 0.627066,-0.705265 0.453924,-1.320304 0.617568,0.56693 1.337692,0.964193 1.775512,0.635932 0.09397,-0.0709 0.206333,-0.211128 0.207627,-0.477024 4.83e-4,-0.347568 -0.199733,-0.857836 -0.586268,-1.425396 0.565679,0.380801 1.211126,0.753054 1.624856,0.797051 0.397556,0.04146 0.704935,-0.09402 0.846467,-0.374468 0.137053,-0.270643 0.09147,-0.622647 -0.110543,-0.945831 0.08866,0.03544 0.174734,0.06616 0.257088,0.09053 0.399759,0.117442 0.841373,-0.05128 0.987919,-0.373207 0.04875,-0.107618 0.167438,-0.483993 -0.35197,-0.816679 L 71.964133,49.79961 c 0.185221,0.0367 0.354557,0.06077 0.492594,0.06077 0.281701,0 0.471626,-0.06584 0.598571,-0.149409 0.183244,-0.120913 0.279799,-0.308942 0.272813,-0.528945 -0.01581,-0.506466 -0.79321,-0.906541 -1.657679,-1.305384 l -0.184606,-0.08585 c 0.363136,0.104456 0.65813,0.189925 0.834761,0.243106 0.442834,0.132643 1.233532,0.315276 1.550713,0.04597 0.104839,-0.08866 0.151639,-0.219405 0.132948,-0.366938 -0.04812,-0.379473 -0.709949,-0.694753 -1.380767,-0.918561 0.524882,-0.04466 0.929126,-0.16592 1.141156,-0.354856 0.145942,-0.13014 0.176931,-0.269391 0.17792,-0.363064 0.0035,-0.335868 -0.187113,-0.92084 -1.493811,-1.065488 -0.411752,-0.04557 -0.961632,-0.07407 -1.542806,-0.104457 -0.723615,-0.03738 -1.543796,-0.07977 -2.200937,-0.163034 -0.0023,-4.85e-4 -0.0046,-9.77e-4 -0.0066,-9.77e-4 -0.60807,-0.07818 -0.85596,-0.27281 -0.957229,-0.41594 0.37955,-0.0095 1.128163,-0.101271 1.841607,-0.617866 0.849347,-0.07217 1.224108,-0.902153 1.449512,-1.401657 0.0522,-0.114871 0.09496,-0.211807 0.134472,-0.274104 0.214612,-0.334268 0.476104,-0.532475 0.699611,-0.532475 0.0063,0 0.01299,0 0.01869,3.98e-4 0.342478,0 0.48903,-0.428018 0.643854,-0.880954 0.0449,-0.132342 0.09147,-0.267797 0.142067,-0.391934 0.201015,0.02759 0.380533,-0.0129 0.534374,-0.117752 0.258911,-0.176936 0.36846,-0.496924 0.411839,-0.679935 0.271898,-0.0354 0.42505,-0.173444 0.507709,-0.292107 0.09117,-0.130141 0.127555,-0.279875 0.128164,-0.414423 0.261798,-0.01421 0.466003,-0.105673 0.608754,-0.2741 0.202912,-0.240216 0.22092,-0.578286 0.202912,-0.810376 0.223812,0.04059 0.411155,0.02158 0.557401,-0.05698 0.183008,-0.09686 0.231406,-0.251616 0.236799,-0.269013 0.01271,-0.045 0.0052,-0.09375 -0.0196,-0.133254 -0.02507,-0.03957 -0.06617,-0.06655 -0.112055,-0.07445 -0.0083,-0.0014 -0.611566,-0.104084 -1.302288,-0.373169 1.66755,-0.03447 2.305097,-0.55299 2.334804,-0.578364 0.06017,-0.05059 0.07627,-0.13705 0.03766,-0.206033 -0.03829,-0.06837 -0.119351,-0.100354 -0.195318,-0.07627 -0.796706,0.261798 -2.011322,0.345667 -2.93847,0.06078 1.627673,-0.485907 3.124594,-1.370357 3.417082,-1.893871 0.01167,-0.02094 0.01903,-0.04407 0.02121,-0.06685 m -6.213134,11.26399 c 0.576465,0.02977 1.120866,0.05827 1.523897,0.102255 0.450428,0.05029 1.205342,0.211731 1.200633,0.735928 -4.83e-4,0.01459 -0.0011,0.05987 -0.06807,0.120036 -0.231705,0.205422 -1.008806,0.370352 -2.168953,0.246903 -0.06648,-0.0076 -0.132344,-0.01431 -0.197525,-0.02158 -0.0052,-9.77e-4 -0.01046,-0.0014 -0.01621,-0.0014 -2.741848,-0.302896 -4.299931,-0.678039 -4.426497,-0.897668 -0.193719,-0.34126 -0.233304,-0.629338 -0.187113,-0.706525 l 0.0399,-0.0111 c 0.08736,0.0024 0.224795,0.0386 0.383345,0.08137 0.375749,0.09998 0.942642,0.253212 1.704933,0.188025 0.666334,0.08357 1.486819,0.126267 2.211653,0.163946"
       style="fill:#b4975a;fill-opacity:1;fill-rule:evenodd;stroke:none;stroke-width:0.0759703" />
    <path
       id="path38"
       d="m 67.422165,45.361279 c -0.0123,0.09018 0.051,0.173135 0.140854,0.18514 0.146241,0.01969 3.444656,0.462813 4.977666,0.462813 0.07437,0 0.144648,-9.78e-4 0.210512,-0.0034 0.09086,-0.0029 0.16242,-0.07909 0.15893,-0.17025 -0.0029,-0.09086 -0.08166,-0.160222 -0.17002,-0.158932 -1.387678,0.0418 -5.095723,-0.452025 -5.13272,-0.456733 -0.09056,-0.01178 -0.173136,0.0509 -0.185222,0.141152"
       style="fill:#b4975a;fill-opacity:1;fill-rule:evenodd;stroke:none;stroke-width:0.0759703" />
  </g>
</svg>
