<?xml version="1.0" encoding="UTF-8" standalone="no"?>
<!-- Created with Inkscape (http://www.inkscape.org/) -->

<svg
   width="59.809025"
   height="59.937538"
   viewBox="0 0 59.809025 59.937537"
   version="1.1"
   id="svg1"
   inkscape:version="1.4.3 (0d15f75042, 2025-12-25)"
   sodipodi:docname="eagles-icon.svg"
   xmlns:inkscape="http://www.inkscape.org/namespaces/inkscape"
   xmlns:sodipodi="http://sodipodi.sourceforge.net/DTD/sodipodi-0.dtd"
   xmlns="http://www.w3.org/2000/svg"
   xmlns:svg="http://www.w3.org/2000/svg">
  <sodipodi:namedview
     id="namedview1"
     pagecolor="#ffffff"
     bordercolor="#000000"
     borderopacity="0.25"
     inkscape:showpageshadow="true"
     inkscape:pageopacity="0.0"
     inkscape:pagecheckerboard="0"
     inkscape:deskcolor="#d1d1d1"
     inkscape:document-units="px"
     inkscape:zoom="3.0274646"
     inkscape:cx="20.479182"
     inkscape:cy="13.212376"
     inkscape:window-width="2560"
     inkscape:window-height="1363"
     inkscape:window-x="0"
     inkscape:window-y="0"
     inkscape:window-maximized="1"
     inkscape:current-layer="layer2"
     showborder="false">
    <inkscape:page
       x="0"
       y="0"
       width="59.809025"
       height="59.937538"
       id="page1"
       margin="0"
       bleed="0" />
  </sodipodi:namedview>
  <defs
     id="defs1" />
  <g
     inkscape:groupmode="layer"
     id="layer2"
     inkscape:label="Layer 2"
     transform="translate(-5.945569,-17.042166)">
    <g
       id="g2"
       transform="translate(-20.761189,4.1541368)"
       style="display:inline;stroke:none;stroke-width:0;stroke-dasharray:none">
      <path
         id="path37"
         d="m 63.209527,49.06912 c -0.508088,0.03132 -0.866745,-0.0747 -1.177849,-0.252605 -0.311477,-0.17789 -0.508088,-0.166496 -1.295975,-0.446652 -0.788196,-0.280102 -0.673554,-0.0434 -1.808099,-0.817595 -1.13447,-0.773986 -1.686242,-1.042393 -2.008741,-1.382358 0.200642,0.02788 0.472236,0.02749 0.641577,0.225025 0.169411,0.197523 0.488483,0.407125 0.796166,0.533692 0.307304,0.126033 0.417456,0.307682 0.700451,0.517283 0.283978,0.209524 0.477093,0.521614 1.07217,0.564385 0.594776,0.0434 1.161744,0.466609 1.52412,0.470411 0.362457,0.0034 0.88665,0.469707 1.567576,0.378862 0.681834,-0.09085 1.370964,0.02754 1.469726,0.193406 -0.760387,0.07122 -0.973407,-0.01552 -1.481122,0.01615 m -5.345814,-3.586443 c -0.102562,0.371346 -0.850261,0.7825 -1.820104,0.481805 -0.968624,-0.300084 -1.788195,-0.750586 -1.788195,-0.750586 -0.242422,-0.04553 -0.376963,-0.111376 -0.455137,-0.170933 0.07407,-0.103172 0.105064,-0.207628 0.08858,-0.311406 -0.02024,-0.125427 -0.104155,-0.221302 -0.211122,-0.30388 0.125658,-0.03006 0.260504,-0.09436 0.31019,-0.23209 0.102258,-0.28451 0.04749,-0.300691 0.448904,-0.205427 0.401961,0.09436 1.559906,0.37104 1.646663,0.221 0.08668,-0.150422 0.22852,-0.228899 0.22852,-0.228899 0,0 -0.283897,0.726507 -0.134236,0.821092 0.449209,-0.331688 1.457722,-0.205427 1.583375,-0.213025 -0.117759,-0.434244 -0.519789,-0.639749 -0.905646,-0.521308 -0.244319,-0.30039 0.2365,-0.513788 0.2365,-0.513788 0.03162,-0.418447 0.362452,-0.536809 0.598566,-0.378866 -0.07088,0.315886 -0.220614,0.395046 -0.220614,0.395046 0.149736,0.205422 0.409556,0.513104 0.637846,0.545092 0.228824,0.03161 0.583681,0.213019 0.504523,0.307677 -0.504523,0.142446 -0.834686,0.292486 -0.89805,0.339664 -0.331077,0.49753 -0.393757,0.750819 -0.393757,0.750819 0.433341,-0.09527 0.543194,-0.032 0.543194,-0.032 m -4.647801,5.406886 c 0.149432,-0.612193 0.21621,-1.59949 0.21621,-1.59949 0.311478,0.300079 0.07118,1.406083 -0.21621,1.59949 M 53.05037,49.037453 c -0.496388,0.197523 -1.268706,0.702729 -1.496921,0.702729 -0.22829,0 -0.661631,-0.276345 -0.90595,-0.07091 -0.244095,0.205121 -0.591051,0.299774 -0.764487,0.220952 -0.173142,-0.07851 -0.417231,-0.05096 -0.567278,0.09907 -0.149357,0.150045 -0.338672,-0.01237 -0.515608,-0.07945 -0.177242,-0.0671 -0.500114,0.02027 -0.669531,0.169987 -0.16964,0.15036 -0.472919,0.08325 -0.63435,0.03166 -0.161746,-0.0516 -0.37446,0.0079 -0.578898,-0.189615 -0.205122,-0.197203 -0.61855,-0.394727 -0.429614,-0.663473 0,0 0.449518,0.640049 0.669835,0.604284 0.220618,-0.03545 0.43303,0.01964 0.614445,0.07913 0.181347,0.05919 0.330778,-0.03195 0.602677,-0.181692 0.271594,-0.15036 0.551393,0.157948 0.744203,0.01552 0.193426,-0.141806 0.331083,-0.181381 0.614682,-0.06679 0.283369,0.114266 0.43303,0.08673 0.681225,-0.138645 0.2482,-0.224754 0.44162,-0.347258 0.709034,-0.217156 0.268179,0.130417 0.469119,0.197523 0.63815,0.07122 0.169722,-0.1263 0.264,-0.300084 0.555878,-0.402955 0.291193,-0.102561 0.47231,-0.268437 0.622351,-0.371308 0.149058,-0.102235 0.913545,-0.134217 1.12626,-0.402315 0.21272,-0.26909 1.047712,-1.469422 1.047712,-1.469422 0,0 -0.251915,0.726808 -0.772013,1.492818 -0.519789,0.766368 -0.795482,0.568845 -1.291802,0.766368 m -0.846766,2.156296 c 0.149737,-0.612193 0.216516,-1.599499 0.216516,-1.599499 0.310868,0.300084 0.07119,1.406093 -0.216516,1.599499 m -1.678336,0.49001 c 0.149432,-0.612193 0.2159,-1.59918 0.2159,-1.59918 0.311788,0.300084 0.07157,1.406084 -0.2159,1.59918 m -4.431898,3.609547 c 1.816916,-1.617222 2.375978,-3.650699 2.375978,-3.650699 -0.229199,2.004361 -1.85497,3.418042 -2.375978,3.650699 m 1.137356,-4.292963 c -0.154219,0.372257 -0.491605,0.587182 -0.827167,0.647647 -0.299095,1.912869 -1.846994,3.2528 -2.353189,3.47913 1.495708,-1.331383 2.13918,-2.944803 2.31999,-3.473748 -0.548583,0.08262 -1.075666,-0.248804 -0.769201,-0.983821 0.02342,0.872711 0.821393,1.0332 1.633669,0.226015 0.0088,-0.09591 0.03287,-0.202591 0.07498,-0.321297 0.02027,0.839792 0.675839,0.968944 1.364963,0.208917 0.04812,-0.145923 0.158246,-0.306726 0.348854,-0.474173 -0.449209,0.766034 0.0395,1.176902 1.055612,0.727099 -0.569089,0.626123 -1.370884,0.447903 -1.429763,-0.02628 -0.412137,0.684042 -1.400746,0.712853 -1.418749,-0.0095 m -2.026892,-0.4897 c -0.07878,0.20101 -0.799893,0.366881 -1.276612,0.1263 -0.291192,0.06331 -0.527995,-0.577054 -0.527995,-0.577054 0,0 -0.0114,0.118702 -0.125956,-0.02313 -0.181037,-0.07913 0.346957,-0.699242 0.520397,-0.762557 0,0 0.106357,0.248803 0.15323,0.793895 0.02749,0.308317 0.240527,0.458042 1.256936,0.442526 M 45.010791,49.54675 c 0.10256,-0.197208 0.362453,-0.65556 0.362453,-0.65556 0.01552,0.497607 0.02308,0.762557 -0.362453,0.65556 m -5.204285,-0.359913 c 2.584216,-0.01867 4.178377,-0.831899 4.178377,-0.831899 -1.260805,0.862606 -2.841675,0.984479 -4.178377,0.831899 m 2.722555,0.223484 c -1.144648,1.011036 -2.698544,1.326636 -4.043528,1.339932 2.562106,-0.336174 4.043528,-1.339932 4.043528,-1.339932 m -0.651143,0.985716 c -0.911645,1.225026 -2.36739,1.854001 -3.681075,2.144586 2.438353,-0.857515 3.681075,-2.144586 3.681075,-2.144586 m 1.788805,0.529265 c -0.921146,1.532383 -2.543725,2.432636 -4.041027,2.922325 2.741626,-1.279783 4.041027,-2.922325 4.041027,-2.922325 m 1.237405,0.189286 c -0.449823,1.967005 -2.222515,3.191081 -2.766011,3.365185 1.985416,-1.405773 2.766011,-3.365185 2.766011,-3.365185 m 1.197752,-4.027981 c 0,0 0.890448,-0.103239 1.205122,0.236425 1.859375,-0.213325 6.176704,-1.911269 6.176704,-1.911269 -0.28299,0.268708 -2.111678,1.224343 -3.364579,1.619084 -1.252533,0.395352 -3.26894,0.726812 -4.584444,0.892654 0,0 0.496012,-0.315886 1.410166,-0.608372 0,0 -0.110159,-0.07126 -0.842969,-0.228522 m 7.263464,-3.728632 c 0.323183,-0.06708 0.941354,-0.15004 1.292105,0.05926 0.350758,0.209218 1.020213,0.43455 1.020213,0.43455 0,0 -0.310874,0.106357 -0.594771,0 -0.283599,-0.106663 -0.583078,-0.185445 -0.94523,-0.134165 -0.169641,-0.130441 -0.480819,-0.102866 -0.752413,-0.03166 -0.272204,0.07126 -0.122157,0.240595 0.01581,0.410543 0.07566,0.09375 0.04939,0.138951 -0.0253,0.145027 -0.0011,-4.86e-4 -0.0017,-9.78e-4 -0.0029,-0.0014 -0.140929,-0.07628 -0.243486,-0.158321 -0.326369,-0.245002 -0.17762,-0.490999 0.02909,-0.576768 0.318774,-0.636941 m 3.545235,-0.09496 c 0.06678,0.213403 -0.413351,0.197906 -0.626066,0.162123 -0.2131,-0.03515 -0.370741,-0.01168 -0.551777,0.0434 -0.145942,0.04461 -0.353569,-0.192815 -0.429541,-0.288083 0.0142,-2.87e-4 0.02938,-0.0014 0.04398,-0.002 0.110456,0.05189 0.318164,0.137356 0.453009,0.11236 0.09527,-0.01809 0.173441,-0.09436 0.271899,-0.16493 0.231406,-0.02468 0.472914,-0.06078 0.71982,-0.104767 0.04301,0.06648 0.08957,0.149133 0.118667,0.241817 m 7.011467,0.789788 c 0.606472,-0.134165 0.291884,-0.220924 0.409941,-0.473524 0.118362,-0.252905 0.472609,-0.363365 0.614676,-0.489704 0.141532,-0.126266 0.306769,-0.836971 0.353948,-0.836971 0.04778,0 0.110457,-0.07908 0.157941,-0.387066 0.04749,-0.308366 -0.188637,-0.252983 -0.354857,-0.347568 -0.03927,-0.118741 0.307373,-0.490009 0.465015,-0.59257 0.157641,-0.102939 0.284277,-0.165919 0.44124,-0.4581 0.157636,-0.292108 0.41753,-0.521313 0.528292,-0.560893 0.110158,-0.03957 0.164937,-0.2526 0.204516,-0.481805 0.03956,-0.229128 0.212715,-0.228823 0.212715,-0.228823 0,0 -0.06297,-0.158321 -0.06297,-0.300384 0,-0.142141 0.85907,-0.703035 0.85907,-0.703035 0,0 0.02305,-0.150039 0.09405,-0.434321 0.165852,-0.157943 0.150047,-0.450429 -0.22031,-0.528984 -0.07058,-0.395046 0.425131,-0.56499 0.673555,-0.691329 0.248194,-0.126266 0.244095,-0.28451 0.303273,-0.486213 0.05888,-0.20132 -0.118362,-0.260198 -0.374456,-0.307682 0.49191,-0.181644 0.602671,-0.0079 0.579576,0.315963 -0.02409,0.324091 -0.260199,0.687228 -0.709713,0.900248 0,0 0.01587,0.126567 0.118742,0.245007 l -0.09466,0.102561 c 0.110158,0.118663 0.07058,0.766315 0.07058,0.766315 0,0 0.354856,-0.0079 0.914229,0.04747 -0.181116,0.197523 -0.90595,0.14184 -1.394439,0.292186 -0.414345,0.12725 -0.488109,0.412744 -0.501028,0.612168 0.331083,0.04248 1.400062,0.17762 1.532711,0.17762 -0.642336,0.28048 -1.311786,0.321583 -1.550183,0.104156 -0.02397,0.135454 -0.08638,0.271898 -0.238018,0.385547 -0.22062,0.166148 -0.370351,0.718837 -0.346572,0.979719 0.0234,0.260504 -0.85915,0.450124 -1.040191,0.702724 0.102258,0.01581 0.370356,0.126572 0.338677,0.505511 0,0 0.165921,0.07118 0.709408,0.371569 -0.291573,0.213097 -0.937623,-0.06359 -0.937623,-0.06359 0,0 -0.165541,0.74231 -0.370357,0.955635 -0.20512,0.213326 -0.448835,0.545392 -0.976828,0.971815 -0.527998,0.426346 -1.717622,0.189242 -1.717622,0.189242 0,0 0.70121,-0.118058 1.307681,-0.252906 m -0.527383,-4.3835 c 0,0 0.740409,-0.916049 0.992397,-1.508619 0.252305,-0.59227 0.417536,-0.829068 0.898355,-1.239612 0,0 -0.323177,0.584061 -0.64605,1.200332 -0.323257,0.61597 -0.228295,1.066477 -1.244702,1.547899 m 11.864694,-4.974169 c -0.10446,0.196612 -0.313685,0.372258 -0.594162,0.524882 -0.483935,0.204438 -1.013526,0.389272 -1.55641,0.521614 -0.01299,0.0034 -0.02121,0.01391 -0.0326,0.01969 -0.747095,0.164552 -1.484922,0.23961 -1.866674,0.219327 0.511205,-0.322877 1.444734,-0.644761 2.292719,-0.896455 0.498896,-0.08227 1.097467,-0.206411 1.75712,-0.389044 m -3.458563,3.718455 c 1.213633,-0.03166 2.213631,-0.205427 2.213631,-0.205427 -0.157636,0.387149 -1.788494,0.418753 -2.213631,0.205427 m 0.567583,-0.766014 c 1.212713,-0.032 2.213625,-0.205423 2.213625,-0.205423 -0.158021,0.387071 -1.7885,0.418448 -2.213625,0.205423 m -0.812281,-0.711006 c 0.299478,0.466309 0.354557,1.137356 0,1.698322 -0.06488,0.03607 -0.117069,0.736534 -0.447542,1.035095 0.400742,0.08767 1.597586,0.03098 1.597586,0.03098 -0.756213,0.347563 -1.551396,0.276305 -1.551396,0.276305 0,0 -0.535892,0.537188 -1.032212,0.624247 0,0 0.393757,0.213326 1.630784,0.300085 -0.441235,0.220923 -1.362679,0.228822 -1.961941,-0.276307 0,0 0.67743,-0.489398 1.266504,-0.967712 0.103552,-0.198814 0.355466,-0.722022 0.380159,-1.196535 0.44131,-0.458027 0.220316,-1.003419 -0.118057,-1.714046 0.404237,0.0417 1.652361,-0.02187 2.241739,-0.05546 0.0011,2.86e-4 0.0011,0.0014 0.0017,0.002 0.02978,0.01648 0.06017,0.0288 0.08995,0.04465 -0.324166,0.08326 -1.008203,0.214921 -2.097471,0.198436 m -0.527993,-2.124896 c 1.686242,-0.584671 2.88407,-1.129457 2.88407,-1.129457 -0.827471,0.718531 -1.773,1.011017 -2.88407,1.129457 m -0.22062,2.330012 c 0.205126,0.118441 0.323557,0.876852 0.434025,1.074375 0.110457,0.197524 -0.04749,0.276384 -0.141837,0.276384 -0.09466,0 -0.283598,0.157943 -0.283598,0.157943 L 70.02759,37.007719 c 0,0 0.574793,0.01581 0.779608,0.13416 m 2.588696,-4.710475 c -0.66884,0.502393 -1.397549,0.969235 -2.081591,1.297884 -0.36367,0.140541 -0.696345,0.231023 -0.939831,0.253206 0.709109,-0.360252 1.821088,-1.15984 2.599482,-1.742916 0.298185,-0.169032 0.584366,-0.329176 0.849963,-0.472612 -0.06967,0.225103 -0.222903,0.449517 -0.428023,0.664438 m -8.871455,14.552155 c -0.523888,-0.327285 -1.169639,-0.884373 -1.007823,-1.536204 0,-2.81e-4 0.314898,0.865152 0.913545,1.212414 0.598876,0.347869 1.138264,0.636253 1.028112,1.137662 C 65.2731,47.55618 65.04838,47.311483 64.524487,46.983519 m 4.955864,-13.290055 c -0.14343,0.0487 -0.253898,0.07027 -0.311478,0.05979 0.524198,-0.348479 1.708952,-1.520325 2.326595,-2.143587 0.125957,-0.09534 0.249712,-0.190304 0.372558,-0.285572 -0.0165,0.107346 -0.04209,0.211803 -0.07787,0.314063 -0.669829,0.751119 -1.493506,1.553519 -2.309806,2.055306 m -0.517713,-0.978137 c -0.285876,0.405757 -0.696725,0.975233 -0.951226,1.401355 0.256094,0.09838 0.949018,0.04747 1.165844,-0.260887 -0.02375,0.284587 -0.271899,0.347874 -0.847077,0.446633 -0.575476,0.09846 -0.618246,-0.122465 -2.013213,0.936031 -1.394365,1.058195 -1.489022,1.232018 -2.544409,3.112284 -1.055986,1.879665 -1.756816,2.235132 -1.756816,2.235132 -0.779918,0.963533 -1.937856,1.801106 -2.772922,1.935348 1.937931,-0.821775 3.269621,-2.598875 3.922657,-3.807415 0.654565,-1.208841 1.103475,-2.258832 2.056524,-3.111907 0.953129,-0.853146 1.705921,-1.173134 2.241515,-1.354856 0.535892,-0.181721 0.713133,-0.79389 0.713133,-0.79389 0.255485,-0.457038 0.592265,-1.149662 0.847675,-1.690651 0.258986,-0.354555 0.510296,-0.711311 0.724609,-1.0215 -0.208006,0.62896 -0.493508,1.405458 -0.786294,1.974323 M 51.276393,44.592025 c -0.04559,-0.170932 0.0017,-0.347257 0.138951,-0.524498 0.103172,-0.132948 0.25131,-0.223508 0.409636,-0.285877 -0.01937,0.04369 -0.03082,0.08615 -0.02374,0.126339 0.01771,0.104461 0.119346,0.180125 0.310184,0.230116 0.152324,0.03927 0.293476,0.06928 0.417841,0.09276 -0.0399,0.09337 -0.0699,0.195322 -0.07278,0.286788 -0.216217,-0.135149 -0.479526,-0.12725 -0.666645,0.02977 -0.112055,0.09398 -0.201624,0.248726 -0.204131,0.449745 -0.161436,-0.117068 -0.270076,-0.256702 -0.309275,-0.405152 m 11.820331,9.144635 C 62.93342,53.497028 62.739086,53.143769 62.520972,52.623367 61.951883,51.265398 62.003162,50.74183 62.079737,49.94857 l 0.0052,-0.05666 c 4.83e-4,-4.85e-4 4.83e-4,-0.0014 4.83e-4,-0.0024 0.0023,-0.02531 0.004,-0.0497 0.0057,-0.07344 0.056,0.0823 0.141843,0.234242 0.261797,0.511533 0.44534,1.026872 0.809085,2.881818 0.74383,3.409178 m 0.586567,-3.721607 c 0.03392,0.146883 0.828759,3.50288 2.220921,4.470864 -0.05956,0.06362 -0.166835,0.07312 -0.320676,0.02565 -0.620449,-0.187389 -1.442216,-1.907172 -1.711539,-2.565583 -0.357438,-1.269028 -0.392837,-2.170542 -0.393148,-2.179725 -0.0034,-0.09053 -0.06146,-0.159218 -0.170623,-0.158588 -0.09086,0.0034 -0.161747,0.07946 -0.158625,0.169983 0.0017,0.03865 0.03674,0.950902 0.407727,2.264873 2.88e-4,0.0014 2.88e-4,0.0024 0.0012,0.0034 0.362756,1.28485 0.42992,2.01512 0.199118,2.170857 -0.04341,0.0288 -0.08858,0.03481 -0.144648,0.01775 -0.04588,-0.01391 -0.141153,-0.05761 -0.276683,-0.197519 0.324465,-0.521981 -0.314593,-2.995769 -0.680845,-3.839994 -0.246906,-0.570416 -0.417536,-0.798637 -0.607156,-0.799907 -0.03231,-0.108258 -0.08137,-0.184548 -0.133253,-0.248484 0.03547,-0.06522 0.09435,-0.07946 0.30578,0.0076 0.346957,0.141806 0.346957,0.25228 0.944919,0.284248 0.468734,0.02468 0.875559,0.05952 1.11548,0.111109 -0.0017,0.01518 -0.004,0.0304 -4.89e-4,0.04592 0.274101,1.446919 0.816002,2.438657 1.25063,3.234768 l 0.132035,0.241837 c 0.05318,0.12725 0.107271,0.245322 0.162649,0.35453 0.09846,0.256402 0.155135,0.509002 0.161442,0.708737 -1.224723,-0.990149 -1.975234,-4.163498 -1.982834,-4.197051 -0.02024,-0.08864 -0.109853,-0.142447 -0.19752,-0.123134 -0.08896,0.02056 -0.144044,0.109208 -0.123456,0.197833 m 8.825881,0.779965 c -0.06997,0.153526 -0.331083,0.272228 -0.595692,0.193407 -0.575856,-0.168712 -1.442221,-0.72963 -1.451035,-0.735012 -0.0017,-0.0014 -0.0023,-0.002 -0.0046,-0.0029 -0.680241,-0.455506 -1.437058,-0.872712 -1.485531,-0.898982 -0.07878,-0.04306 -0.179438,-0.01518 -0.223806,0.06457 -0.0437,0.08009 -0.01449,0.180112 0.06496,0.223794 0.01863,0.0098 1.808703,0.997111 2.328497,1.56278 0.152852,0.167137 0.249108,0.359274 0.273112,0.530846 -0.927142,-0.468165 -2.832717,-1.82773 -2.853909,-1.842921 -0.07315,-0.05286 -0.176022,-0.03544 -0.229503,0.03865 -0.05289,0.07407 -0.03547,0.176314 0.03858,0.229811 0.08767,0.06267 2.046497,1.460215 2.974927,1.907172 -0.09025,0.114595 -0.260199,0.162704 -0.482791,0.141186 -0.624174,-0.06648 -2.067005,-1.140828 -2.595302,-1.569113 -0.243411,-0.236139 -0.514401,-0.471017 -0.812276,-0.697027 -0.07218,-0.05571 -0.175953,-0.04116 -0.230423,0.03132 -0.05537,0.07249 -0.04088,0.176 0.03099,0.230756 1.344069,1.021176 2.181642,2.30539 2.203144,2.932144 -0.922054,-0.859726 -1.988227,-2.337993 -1.999242,-2.353814 -0.05353,-0.07503 -0.157332,-0.09022 -0.230188,-0.03768 -0.07369,0.05286 -0.09048,0.155742 -0.03731,0.229491 0.04812,0.06743 1.135453,1.575761 2.091997,2.448472 -0.420042,0.09939 -1.321583,-0.603965 -1.905873,-1.374755 -0.216515,-0.398209 -0.508698,-0.877459 -0.891439,-1.464642 -0.04996,-0.07566 -0.15126,-0.09813 -0.228215,-0.04781 -0.07567,0.0497 -0.09747,0.151625 -0.04783,0.228231 0.681535,1.045225 1.079391,1.759028 1.251923,2.246191 0.172527,0.486533 -0.0029,0.883796 -0.266506,1.025292 -0.01006,0.0054 -0.02087,0.01014 -0.03139,0.01488 0.03674,-0.253555 -0.105375,-0.652079 -0.439332,-1.245919 -0.39156,-0.695446 -1.245617,-2.400988 -1.254126,-2.41808 -0.04059,-0.08167 -0.141227,-0.114905 -0.22062,-0.07312 -0.08166,0.04019 -0.114636,0.138966 -0.07346,0.220318 0.0079,0.01741 0.866061,1.730226 1.261715,2.432645 0.504898,0.898351 0.393153,1.062947 0.391555,1.064533 -0.0023,0.0034 -0.02656,0.01168 -0.08288,0.0076 -0.125049,-0.05856 -0.248505,-0.164925 -0.360864,-0.314965 -0.08706,-0.116486 -0.174729,-0.260198 -0.260199,-0.429235 -0.04967,-0.1263 -0.106663,-0.25038 -0.169716,-0.366866 -2.87e-4,-0.0014 -0.0017,-0.0029 -0.0023,-0.0044 l -0.134845,-0.247533 c -0.385552,-0.706845 -0.855275,-1.57417 -1.136672,-2.777042 0.13135,-0.187705 0.33359,-0.447278 0.534604,-0.560283 l 1.33138,0.834727 c 0.02725,0.01707 0.05726,0.02531 0.08737,0.02531 0.05479,0 0.108255,-0.02725 0.139635,-0.07756 0.04812,-0.07692 0.02501,-0.178211 -0.05226,-0.22664 l -1.033499,-0.648283 c 0.101643,-0.0095 0.212715,-0.0209 0.325759,-0.03389 l 0.903362,0.56598 c 0.02725,0.01707 0.05726,0.02468 0.08707,0.02468 0.05479,0 0.108864,-0.02691 0.139939,-0.07692 0.04841,-0.0766 0.02466,-0.178212 -0.05261,-0.22696 l -0.586568,-0.367822 c 0.128539,-0.03069 0.236196,-0.06932 0.306091,-0.117441 l 1.043377,0.654294 c 0.02719,0.01678 0.05726,0.02468 0.08736,0.02468 0.05439,0 0.108565,-0.02691 0.139256,-0.07724 0.04875,-0.07661 0.0253,-0.178216 -0.05221,-0.22696 l -1.324164,-0.829955 c -0.08767,-0.122543 -0.17815,-0.240901 -0.257922,-0.340955 l 1.608298,1.00852 c 0.02696,0.01678 0.05738,0.02468 0.08737,0.02468 0.05479,0 0.10864,-0.02725 0.139635,-0.07724 0.04841,-0.0766 0.02466,-0.178211 -0.05226,-0.226966 l -1.658357,-1.039803 0.404231,-0.03991 c 0.275395,0.124366 0.622053,0.2526 1.044596,0.407353 0.227002,0.08326 0.478313,0.17663 0.740714,0.276 -0.01771,0.01586 -0.03576,0.03103 -0.04875,0.05131 -0.141153,0.220952 0.115855,0.462158 0.199802,0.54161 0.515913,0.485257 2.931473,1.67578 3.034036,1.72643 0.0234,0.0114 0.04847,0.01648 0.07247,0.01648 0.06078,0 0.119351,-0.03355 0.148144,-0.09212 0.0399,-0.08104 0.0064,-0.179797 -0.07566,-0.220313 -0.02466,-0.01202 -2.473151,-1.218698 -2.95366,-1.670092 -0.056,-0.05349 -0.08987,-0.09274 -0.10887,-0.120283 0.08487,-0.0066 0.237408,0.0085 0.354557,0.05539 0.03703,0.01488 0.07559,0.01329 0.111072,0.0014 0.349464,0.143071 0.71602,0.299133 1.113577,0.484942 l 1.669143,1.068974 c 0.09596,0.06141 0.311173,0.223794 0.229814,0.402325 m 1.16873,-3.040416 c 0.0066,0.05196 -0.0095,0.06526 -0.01966,0.07407 -0.110761,0.09405 -0.545689,0.09876 -1.242724,-0.109853 -0.22092,-0.06648 -0.626451,-0.183239 -1.11836,-0.324396 -0.0035,-0.0014 -0.0066,-0.0024 -0.0098,-0.0029 -0.121249,-0.03481 -0.24789,-0.07119 -0.377647,-0.108257 -1.174049,-0.337085 -2.635571,-0.756211 -3.337614,-0.977818 -0.08676,-0.0272 -0.179823,0.02061 -0.206713,0.107346 -0.02719,0.08706 0.02087,0.179443 0.107266,0.207018 0.706907,0.222212 2.170252,0.64256 3.345899,0.979335 0.01391,0.0044 0.0276,0.008 0.04048,0.01207 -0.03289,0.189925 0.170021,0.328192 0.484689,0.476714 l 0.188935,0.08797 c 0.445725,0.20611 1.347185,0.621692 1.455831,0.95818 -1.134849,-0.46405 -5.165083,-2.049269 -5.208767,-2.066361 -0.08448,-0.0336 -0.180128,0.0079 -0.213025,0.09268 -0.03358,0.08456 0.0082,0.180431 0.09276,0.213403 0.04341,0.01741 4.086531,1.607703 5.208083,2.066055 -0.133253,0.08325 -0.653346,0.273174 -2.107579,-0.409922 -1.040789,-0.486873 -1.918246,-0.807845 -2.62379,-1.066148 -0.361543,-0.132569 -0.666639,-0.244624 -0.91324,-0.350375 -0.0276,-0.08645 -0.125957,-0.363748 -0.125957,-0.495706 0,-0.141841 0.213019,-0.134243 0.236419,-0.181422 0.02374,-0.04747 -0.03927,-0.245002 -0.188636,-0.410848 -0.09025,-0.09967 -0.291573,-0.303275 -0.465319,-0.454226 0.0076,-0.06396 0.01679,-0.126945 0.02558,-0.183317 0.768592,0.397932 2.952143,0.695131 4.426273,0.857555 1.395957,0.258908 2.514323,0.754615 2.546606,1.009116 M 77.10171,33.971738 v -0.02468 c -0.0029,-0.03511 -0.01673,-0.06959 -0.04111,-0.09747 -0.04559,-0.05226 -0.11996,-0.06868 -0.184917,-0.04427 -1.443435,0.577073 -2.761827,0.856871 -3.665879,0.992325 1.589986,-0.776493 3.062294,-2.133177 3.502241,-2.802323 0.04686,-0.06997 0.03231,-0.163641 -0.03202,-0.2172 -0.0642,-0.05409 -0.158855,-0.05059 -0.219327,0.0079 -1.012916,0.97341 -2.83689,1.767 -4.677278,2.075972 1.635573,-0.871456 3.428471,-2.40925 4.058118,-3.27433 0.04749,-0.06526 0.04019,-0.155131 -0.01679,-0.212715 -0.0564,-0.05736 -0.147155,-0.06526 -0.212117,-0.01809 -0.0046,0.0034 -0.455442,0.321584 -1.825796,1.055383 -0.451038,0.240823 -0.975236,0.539695 -1.50961,0.844487 -0.479221,0.272887 -0.965433,0.549872 -1.411762,0.793284 1.431436,-1.292109 2.606399,-2.981843 2.669757,-3.073616 0.04651,-0.06746 0.03639,-0.158626 -0.02317,-0.214314 -0.0604,-0.05538 -0.152249,-0.05918 -0.215228,-0.0079 l -0.381752,0.31049 c -0.890443,0.727113 -2.45734,2.006916 -3.52533,2.534605 0.527004,-1.136745 0.980324,-2.74603 1.001217,-2.822305 0.02248,-0.07825 -0.0165,-0.160523 -0.08988,-0.194106 -0.01903,-0.0085 -0.03898,-0.01357 -0.05887,-0.01421 h -0.01932 c -0.05036,0.0029 -0.09815,0.02909 -0.12763,0.07346 -0.01518,0.02308 -1.539013,2.330094 -2.402877,3.27304 -0.271589,0.296893 -0.679632,0.566891 -1.152167,0.879359 -1.010404,0.667629 -2.267111,1.499125 -3.011924,3.145483 -1.207935,2.67135 -3.251844,4.66049 -5.606622,5.456581 -1.338986,0.45233 -2.528604,0.465019 -3.484849,0.475119 -0.903438,0.0095 -1.573572,0.01648 -1.847069,0.446327 -0.283294,0.002 -1.051507,0.05387 -1.434552,0.546992 -0.20163,0.258981 -0.270002,0.540073 -0.197221,0.811971 0.06458,0.243407 0.244705,0.46532 0.50741,0.635264 -0.899574,0.418825 -3.957378,1.638459 -8.496015,1.340882 -0.07658,-0.0014 -0.136744,0.03646 -0.163335,0.102255 -0.02657,0.06587 -0.0082,0.141229 0.04558,0.187113 0.319382,0.273499 1.042694,0.432348 1.486515,0.507712 -0.851173,0.636253 -3.32591,1.810629 -7.130818,0.866675 -0.07278,-0.01799 -0.146243,0.01459 -0.183244,0.07916 -0.03608,0.06396 -0.0257,0.144647 0.02691,0.196892 0.463419,0.46437 1.756512,1.044595 2.689357,1.128163 -9.77e-4,0.0014 -0.0024,0.0024 -0.0034,0.0034 -0.343155,0.350414 -1.718832,0.56661 -3.428165,0.318442 -0.06587,-0.0082 -0.131658,0.02216 -0.165542,0.08008 -0.03389,0.05793 -0.02948,0.130421 0.0114,0.183597 0.304491,0.395367 1.882472,1.090178 3.450353,0.88189 -0.01648,0.02754 -0.03768,0.05667 -0.06267,0.0861 -0.40553,0.473548 -1.647041,0.918605 -3.143282,0.817315 -0.06936,-0.0089 -0.127934,0.0304 -0.158016,0.08799 -0.03001,0.05857 -0.02279,0.129151 0.01901,0.180431 0.598645,0.732486 2.376661,0.736602 3.801412,0.328891 -0.136749,0.293437 -0.608372,0.860686 -2.222442,1.502946 -0.06716,0.02657 -0.108942,0.09338 -0.10355,0.165556 0.006,0.07185 0.05766,0.131998 0.127934,0.147824 1.249032,0.284257 2.638383,-0.02182 4.037454,-0.882836 -0.08448,0.351045 -0.421255,0.992994 -1.690646,1.658683 -0.06678,0.03481 -0.101271,0.11048 -0.08417,0.183598 0.01741,0.07313 0.08197,0.125035 0.157332,0.126621 1.330092,0.03453 2.410771,-0.446327 3.460152,-1.530492 0.07719,0.294706 0.05979,0.904048 -0.899947,1.714405 -0.06146,0.05128 -0.07665,0.13896 -0.03676,0.208282 0.04025,0.06901 0.123832,0.09813 0.199119,0.07217 0.08197,-0.02977 1.856871,-0.682151 2.918863,-1.683063 -0.07977,0.482412 -0.423534,1.004709 -0.986327,1.482058 -0.05607,0.04747 -0.07376,0.126935 -0.04276,0.194042 0.02691,0.05887 0.08577,0.09591 0.149433,0.09591 0.0085,0 0.01712,-4.85e-4 0.02599,-0.002 1.610879,-0.257667 2.832102,-0.912912 3.634811,-1.948963 0.09724,0.363399 -0.07787,0.819855 -0.08008,0.825552 -0.02719,0.06932 -0.0046,0.148459 0.05537,0.192457 0.05986,0.04403 0.141837,0.04272 0.200411,-0.0034 0.600475,-0.480196 1.162044,-1.167419 1.437737,-1.526061 0.131966,0.388084 0.154457,0.739133 0.155136,0.743565 0.0029,0.06109 0.04048,0.115221 0.09648,0.140545 0.05669,0.02531 0.121932,0.01678 0.169416,-0.02119 0.364659,-0.289 0.75492,-0.702409 0.974321,-0.945195 0.06488,0.164915 0.113959,0.312429 0.114562,0.31496 0.0184,0.0557 0.06549,0.09781 0.123456,0.109208 0.05726,0.01173 0.117144,-0.0082 0.156348,-0.05286 0.196307,-0.223483 0.355162,-0.46627 0.459921,-0.64259 0.09846,0.196263 0.186515,0.439049 0.221005,0.545726 0.02058,0.06426 0.07908,0.10952 0.146546,0.113956 0.06518,-3.4e-4 0.130441,-0.03355 0.159234,-0.09465 0.140238,-0.300714 0.258601,-0.557741 0.344071,-0.74292 0.100659,0.233608 0.132948,0.381112 0.133551,0.383013 0.01432,0.06711 0.06868,0.118702 0.136749,0.128835 0.06746,0.01042 0.134846,-0.02313 0.168123,-0.08294 l 0.288992,-0.521347 c 0.436221,0.120603 0.790399,0.03166 1.053478,-0.270013 0.46943,-0.05698 0.715342,-0.343766 0.815398,-0.498868 0.388358,-0.01518 0.656537,-0.184228 0.769805,-0.271592 0.264988,-0.0054 0.513107,-0.26495 0.753097,-0.5166 0.120265,-0.12599 0.244705,-0.256402 0.351062,-0.330477 0.262401,-0.184863 0.507709,-0.11649 0.517512,-0.112694 0.06366,0.0209 0.134242,-2.81e-4 0.176632,-0.05223 0.305475,-0.372258 0.641341,-0.532747 0.964823,-0.687849 l 0.122841,-0.05887 c 0.175045,-0.08611 0.426355,-0.277615 0.692246,-0.479565 0.28269,-0.215566 0.603361,-0.460263 0.763808,-0.51597 0.132339,-0.04591 0.333055,-0.06426 0.465014,0.03894 0.125354,0.09813 0.154146,0.283938 0.15103,0.451704 -0.0046,0.03452 -0.0067,0.07154 -0.0072,0.111109 l -0.0046,0.05096 c -0.07878,0.812247 -0.135759,1.39944 0.46471,2.833064 0.189016,0.451394 0.440625,0.966724 0.726507,1.334549 0.0066,0.01076 0.01449,0.02153 0.02369,0.03006 0.173815,0.217151 0.359945,0.37827 0.551393,0.435568 0.152927,0.04621 0.298564,0.02405 0.423532,-0.06046 0.245693,-0.165866 0.330169,-0.507416 0.250097,-1.122465 0.363745,0.649237 0.836964,1.320623 1.295602,1.459584 0.373846,0.112054 0.574263,-0.01363 0.678034,-0.139906 0.04439,-0.05508 0.07855,-0.119972 0.102258,-0.193727 0.006,-0.01329 0.01006,-0.02754 0.01236,-0.0418 0.02587,-0.09496 0.03605,-0.20259 0.03381,-0.317491 0.0491,0.04655 0.09914,0.08641 0.149133,0.120283 0.02087,0.04053 0.05857,0.07281 0.106053,0.08452 0.02938,0.0073 0.05759,0.01363 0.08517,0.01837 0.257612,0.104462 0.507709,0.06933 0.697633,-0.03292 0.366252,-0.196258 0.627066,-0.705265 0.453924,-1.320304 0.617568,0.56693 1.337692,0.964193 1.775512,0.635932 0.09397,-0.0709 0.206333,-0.211128 0.207627,-0.477024 4.83e-4,-0.347568 -0.199733,-0.857836 -0.586268,-1.425396 0.565679,0.380801 1.211126,0.753054 1.624856,0.797051 0.397556,0.04146 0.704935,-0.09402 0.846467,-0.374468 0.137053,-0.270643 0.09147,-0.622647 -0.110543,-0.945831 0.08866,0.03544 0.174734,0.06616 0.257088,0.09053 0.399759,0.117442 0.841373,-0.05128 0.987919,-0.373207 0.04875,-0.107618 0.167438,-0.483993 -0.35197,-0.816679 L 71.964133,49.79961 c 0.185221,0.0367 0.354557,0.06077 0.492594,0.06077 0.281701,0 0.471626,-0.06584 0.598571,-0.149409 0.183244,-0.120913 0.279799,-0.308942 0.272813,-0.528945 -0.01581,-0.506466 -0.79321,-0.906541 -1.657679,-1.305384 l -0.184606,-0.08585 c 0.363136,0.104456 0.65813,0.189925 0.834761,0.243106 0.442834,0.132643 1.233532,0.315276 1.550713,0.04597 0.104839,-0.08866 0.151639,-0.219405 0.132948,-0.366938 -0.04812,-0.379473 -0.709949,-0.694753 -1.380767,-0.918561 0.524882,-0.04466 0.929126,-0.16592 1.141156,-0.354856 0.145942,-0.13014 0.176931,-0.269391 0.17792,-0.363064 0.0035,-0.335868 -0.187113,-0.92084 -1.493811,-1.065488 -0.411752,-0.04557 -0.961632,-0.07407 -1.542806,-0.104457 -0.723615,-0.03738 -1.543796,-0.07977 -2.200937,-0.163034 -0.0023,-4.85e-4 -0.0046,-9.77e-4 -0.0066,-9.77e-4 -0.60807,-0.07818 -0.85596,-0.27281 -0.957229,-0.41594 0.37955,-0.0095 1.128163,-0.101271 1.841607,-0.617866 0.849347,-0.07217 1.224108,-0.902153 1.449512,-1.401657 0.0522,-0.114871 0.09496,-0.211807 0.134472,-0.274104 0.214612,-0.334268 0.476104,-0.532475 0.699611,-0.532475 0.0063,0 0.01299,0 0.01869,3.98e-4 0.342478,0 0.48903,-0.428018 0.643854,-0.880954 0.0449,-0.132342 0.09147,-0.267797 0.142067,-0.391934 0.201015,0.02759 0.380533,-0.0129 0.534374,-0.117752 0.258911,-0.176936 0.36846,-0.496924 0.411839,-0.679935 0.271898,-0.0354 0.42505,-0.173444 0.507709,-0.292107 0.09117,-0.130141 0.127555,-0.279875 0.128164,-0.414423 0.261798,-0.01421 0.466003,-0.105673 0.608754,-0.2741 0.202912,-0.240216 0.22092,-0.578286 0.202912,-0.810376 0.223812,0.04059 0.411155,0.02158 0.557401,-0.05698 0.183008,-0.09686 0.231406,-0.251616 0.236799,-0.269013 0.01271,-0.045 0.0052,-0.09375 -0.0196,-0.133254 -0.02507,-0.03957 -0.06617,-0.06655 -0.112055,-0.07445 -0.0083,-0.0014 -0.611566,-0.104084 -1.302288,-0.373169 1.66755,-0.03447 2.305097,-0.55299 2.334804,-0.578364 0.06017,-0.05059 0.07627,-0.13705 0.03766,-0.206033 -0.03829,-0.06837 -0.119351,-0.100354 -0.195318,-0.07627 -0.796706,0.261798 -2.011322,0.345667 -2.93847,0.06078 1.627673,-0.485907 3.124594,-1.370357 3.417082,-1.893871 0.01167,-0.02094 0.01903,-0.04407 0.02121,-0.06685 m -6.213134,11.26399 c 0.576465,0.02977 1.120866,0.05827 1.523897,0.102255 0.450428,0.05029 1.205342,0.211731 1.200633,0.735928 -4.83e-4,0.01459 -0.0011,0.05987 -0.06807,0.120036 -0.231705,0.205422 -1.008806,0.370352 -2.168953,0.246903 -0.06648,-0.0076 -0.132344,-0.01431 -0.197525,-0.02158 -0.0052,-9.77e-4 -0.01046,-0.0014 -0.01621,-0.0014 -2.741848,-0.302896 -4.299931,-0.678039 -4.426497,-0.897668 -0.193719,-0.34126 -0.233304,-0.629338 -0.187113,-0.706525 l 0.0399,-0.0111 c 0.08736,0.0024 0.224795,0.0386 0.383345,0.08137 0.375749,0.09998 0.942642,0.253212 1.704933,0.188025 0.666334,0.08357 1.486819,0.126267 2.211653,0.163946"
         style="fill:#b4975a;fill-opacity:1;fill-rule:evenodd;stroke:none;stroke-width:0;stroke-dasharray:none" />
      <path
         id="path38"
         d="m 67.422165,45.361279 c -0.0123,0.09018 0.051,0.173135 0.140854,0.18514 0.146241,0.01969 3.444656,0.462813 4.977666,0.462813 0.07437,0 0.144648,-9.78e-4 0.210512,-0.0034 0.09086,-0.0029 0.16242,-0.07909 0.15893,-0.17025 -0.0029,-0.09086 -0.08166,-0.160222 -0.17002,-0.158932 -1.387678,0.0418 -5.095723,-0.452025 -5.13272,-0.456733 -0.09056,-0.01178 -0.173136,0.0509 -0.185222,0.141152"
         style="fill:#b4975a;fill-opacity:1;fill-rule:evenodd;stroke:none;stroke-width:0;stroke-dasharray:none" />
    </g>
  </g>
</svg>
